<?xml version="1.0" encoding="UTF-8"?>
<svg id="svg71" fill="none" inkscape:version="0.92.3 (2405546, 2018-03-11)" sodipodi:docname="logo.svg" version="1.1" viewBox="0 0 923 260.61" xmlns="http://www.w3.org/2000/svg" xmlns:cc="http://creativecommons.org/ns#" xmlns:dc="http://purl.org/dc/elements/1.1/" xmlns:inkscape="http://www.inkscape.org/namespaces/inkscape" xmlns:rdf="http://www.w3.org/1999/02/22-rdf-syntax-ns#" xmlns:sodipodi="http://sodipodi.sourceforge.net/DTD/sodipodi-0.dtd" xmlns:xlink="http://www.w3.org/1999/xlink">
 <metadata id="metadata75">
  <rdf:RDF>
   <cc:Work rdf:about="">
    <dc:format>image/svg+xml</dc:format>
    <dc:type rdf:resource="http://purl.org/dc/dcmitype/StillImage"/>
    <dc:title/>
   </cc:Work>
  </rdf:RDF>
 </metadata>
 <sodipodi:namedview id="namedview73" bordercolor="#666666" borderopacity="1" fit-margin-bottom="0" fit-margin-left="0" fit-margin-right="0" fit-margin-top="0" gridtolerance="10" guidetolerance="10" inkscape:current-layer="svg71" inkscape:cx="462.20281" inkscape:cy="-63.379462" inkscape:pageopacity="0" inkscape:pageshadow="2" inkscape:window-height="1029" inkscape:window-maximized="1" inkscape:window-width="1920" inkscape:window-x="0" inkscape:window-y="27" inkscape:zoom="0.24583333" objecttolerance="10" pagecolor="#ffffff" showgrid="false"/>
 <g fill="#ffffff">
  <path id="path4" d="m33.327 5.876c-11.592 0-22.563 0.621-33.327 1.449l1.863 22.77c11.799-1.035 23.598-1.449 31.671-1.449 7.245 0 13.662 0.207 18.63 0.621 0.621 5.796 0.621 10.764 0.621 16.974v69.759h27.324v-67.689c0-37.053-7.866-42.435-46.782-42.435zm156.41 0c-10.764 0-23.805 2.691-40.365 12.006l-3.933-12.627-24.426 1.863 8.487 27.945-8.073 80.937h27.324l6.417-80.73c9.315-4.347 19.251-5.796 26.703-5.796 5.382 0 9.936 0.414 12.834 1.449 0.621 6.21 1.035 13.041 1.035 20.493v40.779l-25.875 0.621-0.621 23.184h53.82v-69.759c0-30.636-9.315-40.365-33.327-40.365zm84.63 110.12h27.324v-88.803c0-16.767-5.382-20.907-23.391-20.907-5.796 0-13.662 0.207-19.665 0.621l1.863 22.356h13.869zm167.4-109.09c0 79.902-12.213 87.561-46.575 87.561-5.796 0-11.385-0.207-17.595-1.242l-1.863-18.009c20.286-2.277 35.811-9.729 39.951-34.983 2.07-10.971 3.726-22.149 5.175-33.327h-25.461l-3.726 27.531c-2.484 15.939-7.659 22.356-17.181 25.668h-0.414l-5.589-53.199h-27.117l9.315 81.558c1.242 9.108 1.863 14.697 3.519 25.254 12.213 2.277 29.808 3.312 40.986 3.312 53.406 0 74.106-20.079 74.106-110.12zm105.69-1.242c-13.869 0-29.187 0.828-42.021 1.863l1.863 22.977c13.455-1.035 28.566-1.656 40.572-1.656 9.729 0 18.423 0.207 25.461 1.035 0.828 6.624 0.828 13.455 0.828 21.942v64.17h27.531v-71.208c0-33.948-11.178-39.123-54.234-39.123zm-39.33 85.905v24.426h27.324v-61.065c-8.487 0-17.595 0.414-25.254 1.242-1.449 12.213-2.07 25.047-2.07 35.397zm-419.42 46.302c-11.592 0-22.563 0.621-33.327 1.449l1.863 22.77c11.799-1.035 23.598-1.449 31.671-1.449 7.245 0 13.662 0.207 18.63 0.621 0.621 5.796 0.621 10.764 0.621 16.974v69.759h27.324v-67.689c0-37.053-7.866-42.435-46.782-42.435zm96.612 68.517h27.531v-47.61c0-16.974-5.796-20.493-24.426-20.493-5.175 0-13.248 0.414-19.251 0.621l2.07 22.356h14.076zm130.14-67.482-1.656 49.887c-0.828 18.423-6.003 25.875-18.009 30.843-6.831-28.152-14.697-55.683-23.391-81.765l-27.117 1.656c9.729 29.187 18.63 57.546 26.703 86.733-8.901 2.07-17.595 3.519-25.254 4.554v24.012c14.49-1.656 29.394-4.14 45.954-8.901 25.461-7.245 44.091-20.079 46.782-53.613l4.347-53.406zm63.162 109.09h84.042l3.519-20.079-20.493-23.805v-0.621c10.35-15.939 16.353-33.948 23.805-64.584h-25.875l-11.592 49.059-0.621 0.207-31.671-50.715-28.152 2.07-0.207 2.07 30.222 43.677c11.178 16.353 20.286 26.91 28.98 38.295l-0.414 1.242h-51.129zm168.84-110.33c-13.869 0-29.187 0.828-42.021 1.863l1.863 22.977c13.455-1.035 28.566-1.656 40.572-1.656 9.729 0 18.423 0.207 25.461 1.035 0.828 6.624 0.828 13.455 0.828 21.942v64.17h27.531v-71.208c0-33.948-11.178-39.123-54.234-39.123zm-39.33 85.905v24.426h27.324v-61.065c-8.487 0-17.595 0.414-25.254 1.242-1.449 12.213-2.07 25.047-2.07 35.397z" inkscape:connector-curvature="0"/>
  <path id="path10" d="m883.85 195.45h-7e-3c-16.061 35.236-46.87 58.642-91.65 58.642-44.779 0-75.589-23.406-91.65-58.642h-6e-3l3e-3 -6e-3c-8.615-18.904-12.99-41.21-12.99-65.142 0-68.542 35.838-123.79 104.64-123.79 68.806 0 104.64 55.248 104.64 123.79 0 23.932-4.375 46.238-12.991 65.142zm-91.657-195.45c-72.241 0-130.8 58.339-130.8 130.3 0 71.965 58.563 130.3 130.8 130.3s130.8-58.34 130.8-130.3c0-71.966-58.564-130.3-130.8-130.3z" inkscape:connector-curvature="0"/>
  <path id="path12" d="m833.44 139.62c4.767-12.464-6.289-27.937-15.97-24.274-10.495 3.97-20.264 17.194-22.134 47.133 0 7.076 8.29 12.726 16.146 10.193 8.103-2.611 10.579-11.17 10.579-11.17s0.049 12.688-10.032 19.091c-4.227 2.685-12.579 2.297-16.693-1.608 1.919 7.693-0.889 27.695-3.146 29.5-2.257-1.805-5.064-21.807-3.147-29.5-4.113 3.905-12.465 4.293-16.692 1.608-10.081-6.403-10.032-19.091-10.032-19.091s2.476 8.559 10.579 11.17c7.856 2.533 16.145-3.117 16.145-10.193-1.869-29.939-11.638-43.163-22.133-47.133-9.682-3.663-20.737 11.81-15.97 24.274-9.771-4.867-10.631-29.578 6.76-37.631 8.811-2.835 18.447 0.981 24.944 6.129-0.841-4.896-1.709-9.805-2.597-14.616-3.131-16.982 7.371-37.678 12.143-41.383 4.772 3.705 15.274 24.401 12.143 41.383-0.888 4.811-1.756 9.72-2.597 14.616 6.496-5.148 16.132-8.964 24.944-6.129 17.391 8.053 16.532 32.764 6.76 37.631zm50.406-74.414h-63.211l-28.445-58.638-28.445 58.638h-63.212l31.606 65.122-31.602 65.116 3e-3 6e-3h63.205l28.445 58.637 28.445-58.637h63.205l3e-3 -6e-3 -31.602-65.116z" inkscape:connector-curvature="0"/>
 </g>
</svg>
