<?xml version="1.0" standalone="no"?>
<!DOCTYPE svg PUBLIC "-//W3C//DTD SVG 20010904//EN"
 "http://www.w3.org/TR/2001/REC-SVG-20010904/DTD/svg10.dtd">
<svg version="1.0" xmlns="http://www.w3.org/2000/svg"
 width="408.000000pt" height="408.000000pt" viewBox="0 0 408.000000 408.000000"
 preserveAspectRatio="xMidYMid meet">
<metadata>
Created by potrace 1.14, written by Peter Selinger 2001-2017
</metadata>
<g transform="translate(0.000000,408.000000) scale(0.100000,-0.100000)"
fill="#000000" stroke="none">
<path d="M2169 4069 c-9 -4 -31 -10 -48 -11 -18 -1 -36 -8 -42 -14 -15 -18 0
-44 30 -50 14 -4 31 -13 38 -21 6 -8 25 -15 42 -15 16 -1 32 -7 35 -15 3 -7
20 -13 38 -13 18 0 42 -7 52 -15 10 -8 22 -13 25 -11 3 2 35 7 70 10 81 9 107
21 90 43 -33 39 -129 102 -155 103 -63 1 -142 8 -151 13 -4 3 -16 1 -24 -4z"/>
<path d="M1842 4049 c-94 -18 -222 -102 -222 -147 0 -29 205 5 295 50 35 18
115 73 115 80 0 17 -126 28 -188 17z"/>
<path d="M1461 4034 c-30 -8 -75 -26 -102 -40 -49 -27 -117 -90 -107 -99 14
-14 147 -5 202 14 88 31 206 106 206 132 0 14 -139 9 -199 -7z"/>
<path d="M2599 3979 c-21 -13 -1 -39 58 -74 48 -29 53 -34 53 -55 0 -5 23 -19
51 -31 32 -14 48 -27 45 -35 -7 -17 16 -39 65 -65 24 -12 39 -26 39 -38 0 -27
18 -38 114 -71 71 -23 88 -26 92 -15 9 23 -34 179 -54 193 -9 7 -25 11 -34 8
-10 -2 -18 -1 -18 2 0 4 -18 27 -40 51 -32 34 -44 42 -63 37 -18 -4 -33 3 -63
30 -27 24 -46 34 -62 31 -13 -3 -47 5 -75 16 -62 24 -90 28 -108 16z"/>
<path d="M1100 3883 c-159 -30 -359 -213 -376 -345 -5 -36 9 -36 89 0 66 30
155 98 226 172 50 52 131 158 131 171 0 9 -26 10 -70 2z"/>
<path d="M1370 3839 c-66 -13 -179 -72 -228 -120 -42 -42 -62 -72 -82 -125
l-10 -27 63 6 c81 7 161 35 231 82 71 47 208 174 200 186 -6 11 -113 10 -174
-2z"/>
<path d="M2437 3844 c-16 -16 -5 -43 28 -68 20 -15 33 -31 30 -36 -7 -11 14
-26 47 -34 19 -4 26 -11 21 -21 -4 -11 6 -20 35 -32 22 -8 42 -24 45 -34 5
-17 15 -19 86 -19 94 0 93 -1 58 95 -20 53 -25 60 -49 60 -17 1 -35 11 -49 29
-17 22 -28 27 -49 22 -20 -3 -33 1 -46 15 -10 11 -30 19 -48 19 -17 0 -47 2
-66 6 -19 3 -38 2 -43 -2z"/>
<path d="M1980 3643 c-19 -37 -95 -180 -170 -318 -74 -138 -144 -267 -155
-288 -11 -20 -26 -37 -35 -38 -8 0 -180 -1 -382 -1 -261 -1 -368 -4 -368 -12
0 -6 8 -24 18 -41 10 -16 37 -64 59 -105 22 -41 98 -181 168 -310 71 -129 128
-239 128 -245 0 -5 -39 -82 -87 -170 -49 -88 -104 -189 -123 -225 -20 -36 -64
-117 -99 -181 -35 -64 -64 -122 -64 -128 0 -14 -43 -12 397 -12 l372 0 14 -27
c12 -25 37 -71 107 -197 15 -27 44 -81 65 -120 137 -257 199 -365 205 -358 8
8 147 264 325 598 26 50 51 93 54 97 4 4 179 8 389 8 210 1 382 4 382 7 0 3
-29 58 -64 122 -35 64 -79 145 -98 181 -20 36 -77 141 -128 235 l-93 170 29
55 c17 30 62 116 101 190 40 74 112 209 161 300 50 91 88 167 86 169 -3 3
-176 5 -386 5 l-382 1 -162 298 c-89 164 -175 323 -191 353 -15 29 -30 54 -33
54 -3 0 -21 -30 -40 -67z m104 -551 c31 -57 80 -147 108 -200 28 -53 59 -108
67 -122 l16 -25 248 1 247 2 -57 -107 c-31 -58 -87 -162 -124 -231 l-68 -125
28 -50 c16 -27 52 -95 81 -149 29 -55 72 -134 95 -175 24 -42 38 -79 33 -82
-5 -4 -107 -7 -226 -7 -120 0 -227 -1 -239 -1 -17 -1 -34 -24 -79 -108 -32
-60 -71 -133 -87 -163 -16 -30 -44 -83 -63 -117 l-32 -62 -68 122 c-37 67 -80
145 -95 172 -15 28 -42 77 -61 110 l-34 60 -246 -2 -247 -1 23 41 c28 50 75
138 141 262 26 50 56 104 66 120 l18 31 -53 94 c-133 237 -195 353 -192 359 2
3 113 6 245 5 162 0 244 3 250 10 4 6 36 65 71 131 34 66 70 134 80 150 9 17
34 61 54 98 21 38 39 67 40 65 2 -2 29 -49 60 -106z"/>
<path d="M1992 2854 c-41 -49 -70 -112 -84 -179 -10 -49 -9 -56 11 -81 25 -32
47 -100 57 -180 3 -33 8 -66 10 -74 1 -8 3 -32 3 -52 1 -35 3 -38 31 -38 26 0
30 4 31 28 0 15 2 34 3 42 2 8 6 43 10 77 9 84 30 151 59 191 21 28 23 38 16
84 -9 57 -48 141 -88 189 l-27 32 -32 -39z"/>
<path d="M1688 2551 c-36 -18 -67 -70 -68 -115 0 -23 3 -27 18 -21 9 4 47 10
83 12 102 8 149 -25 174 -125 8 -30 18 -46 29 -48 16 -2 17 4 12 59 -9 82 -22
124 -55 172 -47 69 -130 98 -193 66z"/>
<path d="M2274 2562 c-44 -4 -107 -62 -132 -121 -12 -27 -25 -81 -28 -120 -6
-62 -5 -71 9 -71 10 0 19 11 23 28 12 54 17 67 36 95 32 45 72 60 147 54 36
-2 74 -8 84 -12 22 -9 23 20 2 72 -25 60 -68 83 -141 75z"/>
<path d="M1903 2193 c-7 -3 -13 -13 -13 -24 0 -25 9 -28 90 -31 118 -4 167 1
174 17 12 33 -20 43 -131 43 -60 0 -114 -2 -120 -5z"/>
<path d="M1904 2063 c-21 -66 -53 -85 -107 -65 -28 11 -29 10 -23 -16 18 -75
77 -103 120 -57 22 23 46 98 46 140 0 21 -29 19 -36 -2z"/>
<path d="M1995 2068 c-25 -66 -25 -177 0 -214 51 -78 100 57 66 184 -10 35
-16 42 -37 42 -13 0 -27 -6 -29 -12z"/>
<path d="M2110 2057 c0 -40 29 -123 49 -141 40 -36 100 -2 117 66 6 26 5 27
-23 16 -46 -17 -79 -4 -100 42 -20 44 -43 53 -43 17z"/>
<path d="M3203 3589 c-19 -19 -16 -32 21 -86 24 -35 32 -57 29 -75 -4 -21 3
-32 41 -64 30 -25 43 -41 36 -48 -19 -19 -10 -45 30 -82 31 -29 38 -42 34 -63
-2 -14 -1 -31 3 -37 12 -16 162 -104 178 -104 15 0 25 32 46 137 13 69 4 93
-33 93 -20 0 -21 2 -38 65 -14 56 -24 68 -55 68 -22 0 -30 7 -50 52 -21 49
-56 78 -73 61 -3 -4 -26 14 -52 39 -48 47 -96 65 -117 44z"/>
<path d="M2825 3541 c-8 -27 2 -47 40 -75 24 -19 32 -31 28 -46 -4 -17 2 -24
36 -38 28 -12 41 -23 41 -37 0 -30 11 -41 53 -56 28 -10 37 -18 34 -31 -9 -31
14 -40 142 -53 36 -4 57 -2 61 6 10 15 -23 163 -39 183 -9 10 -22 14 -37 10
-14 -4 -24 -2 -24 4 0 6 -16 27 -35 48 -30 31 -37 35 -50 24 -14 -11 -21 -8
-51 24 -28 30 -41 37 -60 32 -14 -4 -37 0 -54 9 -40 21 -77 19 -85 -4z"/>
<path d="M568 3489 c-100 -102 -173 -266 -177 -399 -2 -72 15 -150 33 -150 5
0 32 23 58 52 57 60 110 165 133 263 18 77 26 226 15 265 -7 25 -8 24 -62 -31z"/>
<path d="M935 3476 c-155 -49 -265 -178 -265 -312 l0 -45 38 7 c92 17 200 79
257 148 40 49 95 161 95 194 0 19 -5 22 -42 21 -24 0 -61 -6 -83 -13z"/>
<path d="M3216 3114 c-21 -20 -20 -32 4 -77 11 -21 17 -43 13 -50 -15 -24 -11
-38 22 -64 31 -25 32 -28 19 -49 -14 -21 -13 -24 25 -54 34 -28 38 -35 28 -51
-16 -26 -4 -35 100 -80 86 -36 109 -40 110 -16 1 7 10 46 21 87 21 84 16 110
-23 110 -20 0 -25 5 -25 24 0 12 -5 38 -11 55 -10 29 -15 32 -40 29 -26 -4
-30 -1 -39 33 -12 43 -33 63 -59 56 -13 -3 -29 7 -51 29 -34 37 -69 44 -94 18z"/>
<path d="M709 3046 c-79 -21 -148 -68 -201 -138 -66 -86 -89 -218 -55 -301 16
-36 16 -36 48 -23 103 43 221 168 255 268 18 54 23 183 8 198 -5 4 -30 2 -55
-4z"/>
<path d="M3669 2988 c-7 -13 -9 -41 -5 -72 5 -44 3 -54 -14 -69 -25 -21 -25
-45 0 -77 25 -32 25 -42 0 -58 -25 -15 -25 -33 0 -82 l20 -40 -20 -20 c-11
-11 -20 -24 -20 -30 0 -5 19 -31 43 -57 23 -27 52 -61 64 -76 31 -40 48 -31
116 62 60 83 71 119 36 128 -17 5 -19 10 -12 37 4 17 7 49 8 71 0 35 -3 40
-24 43 -22 4 -23 6 -17 59 7 59 -3 83 -34 83 -12 0 -22 12 -30 38 -20 61 -37
82 -70 82 -20 0 -33 -7 -41 -22z"/>
<path d="M255 2926 c-51 -87 -68 -153 -71 -276 -4 -126 9 -198 52 -281 29 -58
37 -64 56 -41 96 109 107 347 26 580 -12 34 -25 62 -29 62 -5 0 -20 -20 -34
-44z"/>
<path d="M3395 2580 c-18 -20 -21 -43 -11 -81 5 -18 3 -29 -8 -38 -23 -19 -20
-44 9 -71 28 -26 32 -40 11 -40 -35 0 -25 -49 18 -93 14 -13 14 -16 1 -27 -20
-17 -19 -37 3 -54 9 -8 45 -38 80 -66 37 -31 68 -50 77 -46 21 8 107 145 103
164 -2 10 -13 21 -24 26 -19 9 -21 16 -16 68 l4 58 -31 6 c-28 6 -31 10 -31
44 0 53 -8 70 -35 70 -16 0 -30 11 -45 38 -34 58 -76 74 -105 42z"/>
<path d="M535 2511 c-65 -37 -120 -99 -153 -170 -22 -46 -26 -71 -27 -141 0
-74 4 -93 29 -143 15 -32 35 -61 44 -65 11 -4 31 12 65 49 131 145 175 320
114 451 l-22 48 -50 -29z"/>
<path d="M3832 2315 c-11 -14 -23 -41 -26 -61 -6 -28 -14 -38 -38 -46 -29 -10
-30 -12 -26 -69 4 -58 4 -59 -23 -59 -33 0 -40 -17 -33 -80 5 -46 4 -50 -16
-50 -38 0 -39 -35 -5 -127 18 -46 36 -88 41 -93 5 -5 40 10 84 37 116 70 138
96 107 125 -12 10 -8 20 20 59 38 53 42 85 13 94 -20 6 -19 7 5 49 30 51 32
86 7 93 -16 4 -18 13 -14 59 3 43 0 59 -13 75 -25 26 -60 24 -83 -6z"/>
<path d="M141 2289 c-17 -48 -25 -129 -24 -237 2 -127 28 -214 87 -279 43 -47
129 -104 140 -92 12 12 24 104 21 163 -2 35 -11 92 -20 127 -21 84 -105 253
-153 308 l-39 45 -12 -35z"/>
<path d="M3407 2022 c-11 -11 -17 -35 -17 -62 0 -24 -3 -40 -7 -37 -3 4 -14 0
-24 -9 -17 -15 -17 -19 -4 -51 19 -46 19 -50 -5 -56 -24 -6 -25 -28 -4 -69 15
-29 15 -32 0 -44 -27 -19 -22 -45 25 -116 24 -36 49 -74 55 -85 10 -16 17 -13
85 43 77 64 94 95 61 115 -18 12 -18 12 0 51 24 50 20 82 -9 86 -27 4 -27 1
-8 47 19 43 13 68 -19 83 -16 7 -25 22 -29 50 -7 43 -19 57 -57 67 -19 4 -31
1 -43 -13z"/>
<path d="M511 1945 c-104 -113 -122 -275 -46 -413 27 -50 85 -112 104 -112 12
0 35 52 62 140 45 148 25 309 -49 398 l-28 34 -43 -47z"/>
<path d="M3733 1618 c-11 -13 -28 -36 -38 -51 -12 -19 -24 -27 -36 -24 -27 7
-45 -13 -58 -64 -11 -39 -16 -45 -34 -42 -27 4 -46 -8 -51 -33 -13 -64 -19
-74 -41 -74 -35 0 -43 -19 -44 -98 -1 -41 -3 -78 -6 -82 -3 -5 -2 -16 1 -25 5
-13 14 -15 38 -10 17 3 40 8 50 10 53 12 122 39 134 53 6 9 10 24 7 33 -4 12
9 27 45 53 51 37 64 67 35 83 -12 7 -7 15 25 38 43 32 59 67 41 89 -8 10 -6
24 9 57 24 55 25 72 2 92 -26 23 -55 21 -79 -5z"/>
<path d="M225 1580 c-14 -66 21 -183 83 -272 72 -104 215 -218 274 -218 18 0
18 9 2 90 -11 50 -58 156 -94 210 -44 65 -119 140 -187 186 -59 41 -70 42 -78
4z"/>
<path d="M3283 1485 c-9 -7 -22 -28 -28 -46 -8 -22 -19 -35 -33 -37 -25 -4
-33 -25 -27 -69 3 -21 0 -33 -8 -33 -30 -1 -42 -20 -42 -67 0 -31 -4 -48 -12
-48 -29 0 -33 -21 -20 -115 9 -69 17 -95 27 -97 8 -1 49 14 90 35 73 36 75 38
75 74 0 26 8 45 28 65 30 32 36 70 12 79 -13 5 -11 12 10 40 28 36 32 66 12
83 -9 7 -13 26 -10 55 3 24 0 53 -6 64 -13 25 -45 33 -68 17z"/>
<path d="M644 1403 c-23 -54 -20 -166 5 -233 12 -30 38 -77 59 -105 39 -52
151 -135 182 -135 16 0 16 5 4 83 -17 103 -48 205 -86 281 -31 60 -109 146
-134 146 -8 0 -22 -17 -30 -37z"/>
<path d="M3428 1017 c-29 -21 -53 -30 -74 -29 -26 2 -35 -4 -58 -38 -22 -34
-30 -39 -54 -34 -24 5 -33 -1 -65 -39 -26 -32 -42 -44 -56 -40 -10 2 -24 -1
-30 -9 -20 -22 -91 -146 -91 -157 0 -11 31 -14 130 -11 72 1 85 6 98 34 7 16
24 27 56 35 45 11 79 43 70 65 -3 7 12 18 32 25 44 16 74 44 74 71 0 11 16 36
35 54 77 75 20 136 -67 73z"/>
<path d="M530 1008 c1 -27 39 -95 80 -141 76 -86 224 -177 335 -205 63 -16
135 -23 135 -13 0 15 -126 145 -197 203 -104 85 -209 138 -325 162 -19 4 -28
2 -28 -6z"/>
<path d="M3015 1007 c-11 -5 -30 -23 -44 -39 -16 -20 -30 -28 -43 -25 -22 6
-44 -14 -70 -62 -14 -25 -22 -31 -38 -26 -22 7 -33 -2 -70 -57 -15 -23 -33
-38 -45 -38 -31 0 -40 -10 -78 -87 -20 -39 -41 -74 -47 -78 -14 -9 -12 -45 3
-45 12 0 113 23 178 40 25 7 39 17 43 33 3 15 21 28 56 42 58 23 73 36 68 62
-2 13 11 27 47 48 42 25 50 35 51 60 0 17 13 48 28 70 32 47 32 94 0 105 -11
5 -29 3 -39 -3z"/>
<path d="M985 918 c33 -157 217 -306 433 -353 l33 -7 -37 69 c-100 183 -195
264 -361 307 -79 21 -76 21 -68 -16z"/>
<path d="M1745 799 c-17 -5 -49 -24 -71 -43 -97 -83 -81 -236 31 -302 l45 -26
32 31 c20 19 47 34 70 37 43 7 46 13 19 36 -53 45 -97 177 -80 240 10 39 5 42
-46 27z"/>
<path d="M1859 788 c-1 -7 -2 -26 -4 -42 -3 -44 15 -107 44 -148 30 -42 55
-57 91 -52 14 2 38 6 53 8 16 3 56 19 90 37 143 75 156 81 201 81 25 1 46 5
46 10 0 4 -18 26 -39 47 -49 49 -105 60 -201 41 -104 -20 -179 -18 -228 8 -50
26 -52 26 -53 10z"/>
<path d="M2296 605 c-70 -28 -73 -31 -97 -84 l-18 -41 35 -16 c20 -10 41 -25
47 -35 10 -15 14 -16 37 -4 64 33 142 150 126 190 -8 22 -63 18 -130 -10z"/>
<path d="M932 550 c-88 -29 -157 -95 -187 -179 -8 -24 -15 -44 -15 -45 0 0 26
-1 58 -2 69 -1 154 -30 315 -108 236 -114 356 -143 565 -137 l32 1 -15 36
c-28 68 -29 137 -1 204 16 42 21 62 13 65 -7 2 -73 22 -147 45 -74 23 -192 59
-261 81 -70 22 -140 42 -155 45 -64 13 -153 10 -202 -6z"/>
<path d="M2789 520 c-125 -26 -190 -45 -320 -95 -152 -59 -152 -59 -134 -110
20 -57 18 -126 -5 -181 -13 -30 -17 -51 -11 -57 15 -15 135 -20 192 -7 134 30
236 73 409 174 93 54 201 88 282 90 36 0 65 3 64 6 -2 3 -18 37 -36 77 -29 64
-38 75 -79 94 -64 31 -239 35 -362 9z"/>
<path d="M1965 429 c-92 -12 -168 -66 -199 -141 -42 -101 14 -216 129 -264 50
-21 170 -18 221 5 97 44 150 146 124 241 -28 103 -153 175 -275 159z"/>
<path d="M755 253 c-73 -19 -29 -111 77 -160 80 -37 88 -38 88 -6 0 15 9 48
20 72 11 24 19 45 18 46 -2 1 -25 11 -53 22 -55 23 -119 34 -150 26z"/>
<path d="M3125 243 c-76 -17 -83 -25 -56 -59 14 -18 21 -41 21 -71 l0 -44 37
6 c64 10 146 58 168 98 20 37 20 37 0 56 -26 26 -93 32 -170 14z"/>
</g>
</svg>
