<svg width="117" height="122" viewBox="0 0 117 122" fill="none" xmlns="http://www.w3.org/2000/svg">
<path d="M22.1335 33.0552C22.1519 33.0813 22.1703 33.1053 22.1886 33.1315C22.4641 33.5073 22.7834 33.8513 23.1571 34.1403L24.4295 35.1257L24.5736 35.2359L26.3708 36.6262L28.755 38.4715L31.1392 40.3153L45.5026 51.4297C46.753 52.3954 48.3114 52.9295 49.8889 52.9316L51.5978 52.9344L66.5158 52.9549L68.2247 52.9556C69.8043 52.9585 71.3626 52.4279 72.6152 51.4665L87.0118 40.393L89.3996 38.5562L91.7887 36.7181L93.5916 35.332L95.0094 34.2413C95.3838 33.9537 95.7052 33.6111 95.9808 33.2346L96.0365 33.159C96.305 32.7803 96.5275 32.3713 96.6822 31.934C96.8744 31.3971 96.9775 30.8277 96.9797 30.2485V29.4926L97.003 13.243L97.0023 12.35C97.0037 11.8456 96.9705 11.3462 96.9111 10.8545C96.8115 10.0315 96.6307 9.23392 96.3749 8.46885C94.7544 3.60216 90.1646 0.0798479 84.7596 0.0713706L33.5051 1.06478e-05C28.0994 -0.00705378 23.4991 3.50185 21.8636 8.365C21.6058 9.12937 21.4214 9.92765 21.3197 10.7485C21.2589 11.2402 21.2264 11.7383 21.2236 12.2462L21.2229 13.137L21.2017 29.3866L21.201 30.1439C21.1975 30.7218 21.3013 31.2926 21.4914 31.8295C21.6461 32.2639 21.8665 32.6765 22.1335 33.0552Z" fill="white"/>
<path d="M16.4703 13.1554C14.2309 13.4203 12.4867 15.3249 12.4846 17.6342L12.4662 17.9211L10.9565 30.2428L16.447 29.819L16.4703 13.1554Z" fill="white"/>
<path d="M10.3412 35.0834L7.86515 35.2762C6.86059 35.354 5.97258 35.8386 5.35091 36.5577C4.78717 37.2105 4.44171 38.0554 4.43888 38.9716L4.43677 39.1073L1.00843 98.2252C0.709609 103.386 4.33079 107.92 9.42847 108.77L16.3135 109.915L19.1491 46.3193L19.2544 43.9323L19.3611 41.5473L19.5511 37.3242C18.6907 36.5217 17.9863 35.573 17.4664 34.5295L10.3412 35.0834Z" fill="white"/>
<path d="M105.76 17.9291L105.761 17.785C105.765 15.4764 104.024 13.5675 101.788 13.2949L101.763 29.9563L107.252 30.3985L105.76 17.9291Z" fill="white"/>
<path d="M113.701 39.1934L113.7 39.1242C113.702 38.2086 113.361 37.3616 112.798 36.7067C112.177 35.9876 111.291 35.4987 110.285 35.4189L110.239 35.414L107.81 35.219L100.688 34.6461C100.165 35.6866 99.4557 36.634 98.5959 37.4344L98.7719 41.6568L98.87 44.0432L98.9718 46.4302L101.63 110.035L108.517 108.907C113.62 108.072 117.251 103.548 116.966 98.3848L113.701 39.1934Z" fill="white"/>
<path d="M95.9135 87.203L94.2095 46.425L94.1114 44.0373L94.0096 41.6516L93.9863 41.0532L93.2092 41.6509L90.1122 44.0316L87.0137 46.4144L75.5333 55.2478C73.4486 56.85 70.8546 57.7295 68.2252 57.7281L66.517 57.7232L66.4994 69.6239C69.4332 70.2908 71.6281 72.918 71.6232 76.0469L71.6126 84.1667C71.6083 87.2976 69.4071 89.9179 66.4718 90.5756L66.4591 99.8257C66.452 103.921 63.1176 107.246 59.0224 107.24H58.9559C54.86 107.235 51.5348 103.899 51.5412 99.8052L51.5539 90.555C48.6221 89.8889 46.4251 87.263 46.4307 84.1321L46.4427 76.0129C46.4448 72.8827 48.6497 70.2639 51.5835 69.6041L51.5991 57.7027L49.8916 57.702C47.2615 57.6963 44.6682 56.8097 42.5912 55.1997L31.132 46.336L28.0435 43.9454L24.9507 41.5541L24.1785 40.9557L24.1503 41.5534L24.045 43.9412L23.9383 46.3261L22.1214 87.0991L20.96 113.108L20.9296 113.828C20.902 114.412 20.9522 114.985 21.0575 115.543C21.3196 116.92 21.9638 118.197 22.9592 119.24C24.36 120.708 26.2463 121.515 28.2745 121.519L89.665 121.605C91.6897 121.607 93.5808 120.803 94.9831 119.341C95.9848 118.3 96.6319 117.027 96.8976 115.647C97.0056 115.09 97.0551 114.518 97.0297 113.934L97 113.215L95.9135 87.203Z" fill="white"/>
<path fill-rule="evenodd" clip-rule="evenodd" d="M68.0373 76.0153C68.0373 73.9886 66.3908 72.3422 64.3641 72.3422H54.0255C51.9988 72.3422 50.3523 73.9886 50.3523 76.0153V83.3635C50.3523 85.3902 51.9988 87.0366 54.0255 87.0366H64.3641C66.3908 87.0366 68.0373 85.3902 68.0373 83.3635V76.0153Z" fill="white"/>
</svg>
