<svg width="112" height="122" viewBox="0 0 112 122" fill="none" xmlns="http://www.w3.org/2000/svg">
<path d="M69.5739 42.1743L73.6182 21.6456L62.1484 39.1444C56.7614 37.805 51.2486 38.1529 46.2553 39.9186L41.5102 32.8443L43.2449 41.1829C38.4901 43.5186 34.3853 47.2151 31.5742 52.001L11.0471 47.9566L28.5459 59.4265C27.2065 64.8134 27.5544 70.3262 29.3185 75.3196L22.2458 80.0662L30.5844 78.3299C32.9201 83.0832 36.6149 87.1879 41.4025 89.999L37.3581 110.526L48.8279 93.029C54.2149 94.3684 59.7277 94.0205 64.721 92.2564L69.4661 99.3307L67.7314 90.9905C72.4863 88.6564 76.591 84.9599 79.4021 80.174L99.9276 84.2167L82.4321 72.7486C83.7715 67.3616 83.422 61.8488 81.6579 56.8538L88.7305 52.1087L80.392 53.8451C78.0562 49.0886 74.3598 44.9854 69.5739 42.1743ZM50.5381 90.4172L56.9378 80.6543L63.0321 89.7377C59.0727 91.0036 54.7768 91.2845 50.5381 90.4172ZM67.114 88.0226L64.8844 77.3139L76.3379 79.5697C73.9923 83.2057 70.7892 86.0772 67.114 88.0226ZM33.5523 77.7125L44.2625 75.4829L42.0052 86.9364C38.3692 84.5924 35.4977 81.3877 33.5523 77.7125ZM62.7789 69.0619C61.1357 73.0899 56.5392 75.0223 52.5129 73.379C48.4849 71.7342 46.5542 67.1378 48.1958 63.113C49.839 59.0834 54.4354 57.1528 58.4634 58.7943C62.4898 60.4392 64.4237 65.0356 62.7789 69.0619ZM31.1577 61.1383L40.9206 67.5363L31.8372 73.6306C30.5713 69.6712 30.2904 65.377 31.1577 61.1383ZM70.0541 64.637L79.1392 58.5428C80.4051 62.5054 80.686 66.798 79.8186 71.0367L70.0541 64.637ZM66.7138 56.6905L68.9712 45.237C72.6071 47.5826 75.4787 50.7873 77.4241 54.4625L66.7138 56.6905ZM43.864 44.1524L46.0919 54.861L34.6401 52.6053C36.9841 48.9694 40.1888 46.0978 43.864 44.1524ZM60.4366 41.7562L54.0385 51.5191L47.9442 42.4357C51.9036 41.1698 56.1995 40.8889 60.4366 41.7562Z" fill="white"/>
<path fill-rule="evenodd" clip-rule="evenodd" d="M73.4212 8.0527L64.1761 4.28117L65.9238 0L94.306 11.5792L92.5599 15.8604L90.1016 14.8575L87.6629 20.8325C108.224 35.4107 116.836 62.7066 106.905 87.0543C95.3253 115.433 62.9314 129.056 34.5509 117.48C6.16873 105.901 -7.45225 73.5068 4.12701 45.1246C14.0565 20.7819 39.3009 7.29809 64.1957 11.2591L66.6344 5.28406L73.4212 8.0527ZM36.7609 112.06C11.3712 101.703 -0.814096 72.7227 9.54336 47.3346C19.9025 21.9449 48.8792 9.76124 74.2673 20.1187C99.657 30.4762 111.844 59.4545 101.486 84.8426C91.1274 110.232 62.1507 122.419 36.7609 112.06Z" fill="white"/>
</svg>
