<svg width="376" height="376" viewBox="0 0 376 376" fill="none" xmlns="http://www.w3.org/2000/svg">
<path d="M79.7091 231.428C80.3687 229.522 81.1015 227.69 81.9077 225.931C92.2409 206.804 102.647 187.603 113.127 168.549C114.666 165.764 114.739 163.712 113.2 160.927C102.574 141.8 92.1676 122.526 81.6878 103.325C80.955 102.006 80.3687 100.614 79.416 98.7083H85.4987C105.945 98.7083 126.392 98.6351 146.838 98.7816C149.916 98.7816 151.455 97.7556 152.921 95.1174C163.254 75.6235 186.939 34.1441 187.965 32.312C192.215 40.1535 213.455 80.9733 220.27 94.0914C222.102 97.6824 224.301 98.7083 228.185 98.6351C248.338 98.3419 268.419 98.3419 288.572 98.1953H294.361C291.357 103.912 288.719 108.895 286.007 113.878C277.579 129.561 269.298 145.244 260.724 160.781C259.185 163.566 259.185 165.618 260.724 168.403C271.277 187.457 281.61 206.657 292.016 225.785C292.749 227.104 293.409 228.496 294.361 230.402C292.676 230.548 291.43 230.768 290.111 230.768C269.371 230.915 248.632 231.135 227.892 231.061C224.301 231.061 222.395 232.161 220.783 235.312C210.083 255.539 188.331 296.652 187.965 297.018C186.939 295.406 163.987 254.806 153.947 235.825C152.188 232.454 150.136 231.428 146.472 231.428C126.172 231.574 105.872 231.501 85.6453 231.501L79.7091 231.428ZM256.4 207.537C255.3 205.412 254.641 204.019 253.981 202.7C247.752 191.121 241.523 179.542 235.147 168.109C233.755 165.691 233.681 163.859 235.074 161.367C240.79 151.107 246.286 140.774 251.783 130.368C253.175 127.729 254.568 125.018 256.18 121.866C241.523 121.866 227.599 121.793 213.674 121.94C211.036 121.94 209.497 121.28 208.325 118.788C205.393 112.852 192.069 87.2026 187.965 79.6542C187.085 81.1932 172.342 106.477 166.112 118.349C164.72 121.06 163.108 122.086 160.03 122.013C147.645 121.866 135.259 122.086 122.874 122.16C121.408 122.16 120.016 122.306 117.891 122.379C125.219 135.717 131.961 148.322 139.07 160.781C140.682 163.566 140.682 165.764 139.07 168.476C136.578 172.726 134.307 177.124 131.961 181.521C127.564 189.729 123.241 197.863 118.477 206.731H123.754C135.846 206.731 147.938 206.804 159.956 206.511C163.034 206.438 164.647 207.537 166.039 210.175C173.074 223.22 180.563 236.191 187.965 249.529C188.844 247.917 202.389 222.707 208.251 211.348C209.79 208.416 211.549 207.464 214.7 207.537C228.258 207.61 241.889 207.537 256.4 207.537Z" fill="white"/>
<path d="M187.955 32.312C192.206 40.1535 213.445 80.9733 220.261 94.0914C222.093 97.6824 224.291 98.7083 228.175 98.6351C248.329 98.3419 268.409 98.3419 288.562 98.1953H294.352C291.347 103.912 288.709 108.895 285.998 113.878C277.57 129.561 269.288 145.244 260.714 160.781C259.175 163.566 259.175 165.618 260.714 168.403C271.267 187.457 281.6 206.657 292.007 225.785C292.74 227.104 293.399 228.496 294.352 230.402C292.666 230.548 291.421 230.768 290.102 230.768C269.362 230.915 248.622 231.135 227.882 231.061C224.291 231.061 222.386 232.161 220.774 235.312C210.074 255.539 188.322 296.652 187.955 297.018V249.529C188.835 247.917 202.379 222.707 208.242 211.348C209.781 208.416 211.54 207.464 214.691 207.537C228.249 207.61 241.88 207.537 256.39 207.537C255.291 205.412 254.631 204.019 253.972 202.7C247.743 191.121 241.513 179.542 235.138 168.109C233.745 165.691 233.672 163.859 235.064 161.367C240.781 151.107 246.277 140.774 251.773 130.368C253.166 127.729 254.558 125.018 256.17 121.866C241.513 121.866 227.589 121.793 213.665 121.94C211.027 121.94 209.488 121.28 208.315 118.788C205.384 112.852 192.059 87.2026 187.955 79.6542V32.312Z" fill="white"/>
<path d="M359.948 199.979C363.246 203.203 362.073 205.841 358.482 207.967C354.378 210.458 350.274 212.95 346.317 215.588C343.532 217.42 342.213 216.468 341.333 213.536C340.307 210.019 339.062 206.501 337.669 203.057C335.91 199.026 336.204 196.094 340.894 195.435C343.019 191.111 336.79 183.416 346.83 183.196C346.537 180.924 345.804 178.726 346.17 176.674C346.537 174.988 348.076 173.449 349.248 171.984C350.054 170.884 351.3 170.005 351.887 168.832C352.766 166.927 352.839 164.362 354.085 162.823C355.331 161.284 357.969 159.745 359.582 160.038C361.194 160.331 362.953 162.896 363.392 164.728C364.272 168.319 362.073 172.497 366.104 175.575C366.763 176.088 365.957 179.092 365.298 180.705C364.492 182.683 363.099 184.369 362 186.201C367.057 188.619 367.057 188.619 359.948 199.979Z" fill="white"/>
<path d="M339.424 136.355C335.393 126.462 335.393 126.462 340.01 123.457C339.131 121.771 337.958 120.086 337.372 118.254C336.932 116.568 336.419 113.71 337.152 113.197C340.597 110.852 339.351 107.994 338.911 104.989C338.471 101.984 338.471 98.7598 341.989 97.6605C345.8 96.4147 347.559 99.1262 348.878 102.204C350.197 105.282 350.051 109.313 354.961 109.679C355.474 109.679 356.206 112.024 356.133 113.27C355.987 115.762 355.694 118.18 355.254 120.599C361.043 122.724 361.043 122.724 358.405 134.303C362.875 137.967 363.095 138.774 359.504 143.684C356.353 148.007 352.909 152.185 349.171 157.095C344.701 151.892 340.45 147.421 336.932 142.438C336.126 141.338 337.739 138.627 338.178 136.648L339.424 136.355Z" fill="white"/>
<path d="M309.083 68.2268C306.811 66.3946 304.685 65.2221 303.293 63.4632C302.194 61.9975 301.974 59.8723 301.388 58.0401C301.094 57.0141 301.094 55.695 300.581 54.8156C299.629 53.2033 297.943 51.9574 297.357 50.3452C296.624 48.2199 296.771 45.8748 296.551 43.6029C298.823 43.8961 301.314 43.8228 303.366 44.7022C305.125 45.4351 306.224 47.4871 307.837 48.5863C309.596 49.7589 311.794 50.2719 313.553 51.3712C315.165 52.3972 316.851 53.5697 317.877 55.0354C319.196 57.0874 319.855 59.5058 320.955 62.1441C327.331 60.3852 328.063 65.2221 329.163 69.5459C329.749 71.891 329.749 74.2362 333.193 74.7491C334.219 74.8957 335.758 77.9004 335.539 79.4394C334.879 84.1297 333.926 88.8199 332.754 93.4369C332.241 95.6354 330.995 96.5149 328.723 95.0492C324.546 92.4109 320.222 90.139 316.045 87.4275C314.945 86.6946 313.406 84.5694 313.7 83.9098C315.752 79.586 312.161 78.1936 310.035 76.1416C307.69 73.7964 305.345 71.6712 309.083 68.2268Z" fill="white"/>
<path d="M332.541 243.224C332.981 241.172 333.201 238.973 334.08 236.994C334.667 235.602 336.279 233.55 337.232 233.697C340.676 234.136 341.702 231.791 343.241 229.739C344.12 228.493 344.926 226.734 346.172 226.295C348.151 225.562 350.863 224.902 352.402 225.782C353.574 226.441 353.941 229.446 353.941 231.351C353.941 232.89 352.768 234.503 352.108 236.042C351.815 236.775 351.082 237.727 351.302 238.167C355.626 245.129 348.884 246.888 345.366 250.625C349.177 254.51 346.539 256.855 343.168 259.126C340.676 260.812 337.232 261.911 338.404 266.235C338.551 266.895 337.085 268.507 336.132 268.8C330.196 270.706 324.187 272.391 317.078 274.516C317.518 267.408 317.811 261.472 318.397 255.536C318.471 254.729 319.863 253.41 320.523 253.484C324.333 253.85 324.407 251.138 325.139 248.647C326.532 243.004 326.898 242.784 332.541 243.224Z" fill="white"/>
<path d="M317.075 168.743C311.505 160.462 311.505 160.462 315.463 157.531C314.29 156.138 312.824 154.893 312.018 153.28C311.432 152.108 311.139 149.836 311.798 149.323C314.29 147.271 313.191 145.219 312.971 142.8C312.824 140.748 313.85 137.524 315.389 136.718C316.928 135.912 320.226 136.791 321.765 138.183C324.477 140.675 325.063 145.439 330.12 145.512C330.559 145.512 331.292 147.857 331.439 149.103C331.512 150.935 331.439 152.694 331.219 154.526C337.302 155.479 337.302 155.479 336.569 165.885C341.552 168.963 341.772 169.769 338.621 174.899C336.935 177.684 334.956 180.249 333.271 183.034C331.585 185.819 330.12 186.332 327.481 183.913C324.183 180.835 320.739 177.977 317.148 175.339C313.924 173.141 314.143 171.162 317.075 168.743Z" fill="white"/>
<path d="M328.801 210.012C333.638 212.43 333.638 212.43 329.461 221.81C333.345 226.208 333.345 226.94 328.728 230.971C326.09 233.316 323.305 235.588 320.667 237.933C318.834 239.545 317.515 239.179 316.269 237.054C314.144 233.316 311.946 229.579 309.454 226.061C307.255 222.983 307.255 220.711 310.553 219.099C311.286 215.215 303.811 210.378 312.385 207.813C311.579 206.274 310.92 204.735 310.333 203.123C310.04 202.023 309.82 199.898 310.26 199.752C314.291 198.066 313.191 194.402 314.144 191.47C314.657 190.005 316.929 187.953 318.248 188.099C320.154 188.246 322.719 189.638 323.671 191.324C325.503 194.622 325.21 198.726 329.461 200.997C330.487 201.51 329.094 206.494 328.801 210.012Z" fill="white"/>
<path d="M308.865 118.026C301.39 112.163 301.39 112.163 304.102 107.766C301.024 105.42 296.553 103.588 299.485 98.1653C299.851 97.4324 297.726 95.6003 297.579 94.2079C297.359 92.0093 296.993 88.7115 298.239 87.6855C299.485 86.6595 302.929 87.0259 304.761 87.9786C307.546 89.4443 309.012 93.2552 313.262 92.2292C313.848 92.0826 315.168 93.988 315.754 95.0873C316.487 96.9194 317.073 98.8248 317.513 100.73C322.936 98.5317 324.108 102.049 324.621 106.153C324.915 108.425 324.915 110.697 328.359 110.917C329.238 110.99 330.851 113.702 330.704 114.874C329.971 119.271 328.579 123.522 327.553 127.919C326.893 130.704 325.281 130.85 323.082 129.898C319.272 128.212 315.607 126.233 311.65 124.914C307.766 123.522 306.52 121.617 308.865 118.026Z" fill="white"/>
<path d="M237.272 324.617C240.35 318.974 243.355 313.331 246.506 307.688C246.873 307.029 247.679 306.223 248.192 306.296C252.956 306.882 253.908 302.705 256.253 300.14C257.719 298.528 259.991 297.722 261.97 296.549L262.922 297.722C263.875 295.816 264.901 293.911 266.074 292.152C266.88 290.979 268.419 289.074 269.225 289.22C273.182 289.953 274.648 287.095 276.773 285.043C278.752 283.065 281.024 281.452 283.662 283.504C286.3 285.556 285.494 288.194 284.102 290.613C282.196 293.984 279.924 296.842 279.411 301.166C279.118 303.511 274.281 305.343 270.984 307.762C272.229 311.572 269.518 313.258 265.78 314.577C262.922 315.603 259.405 316.043 258.745 320.147C258.525 320.733 258.012 321.173 257.426 321.319C250.904 322.932 244.381 324.471 237.859 326.01L237.272 324.617Z" fill="white"/>
<path d="M277.502 314.244C280.067 309.7 282.632 305.083 285.27 300.613C285.783 299.806 287.176 298.634 287.762 298.854C291.866 300.173 292.965 296.802 294.724 294.53C296.629 291.965 298.608 289.986 302.126 292.771C303.298 290.939 304.544 289.107 305.937 287.421C306.889 286.322 308.721 284.563 309.454 284.856C313.412 286.395 315.39 283.464 317.882 281.705C320.374 279.946 323.452 278.407 325.87 280.972C328.435 283.684 326.31 286.395 324.111 288.594C321.913 290.792 319.934 292.624 319.714 296.215C319.568 297.754 316.197 299.147 314.145 300.319C312.239 301.419 309.894 301.419 310.407 304.863C310.554 305.816 307.842 307.648 306.156 308.381C302.859 309.7 298.901 309.7 297.729 314.097C297.582 314.39 297.362 314.61 297.069 314.683C290.62 315.196 284.171 315.709 277.722 316.149L277.502 314.244Z" fill="white"/>
<path d="M295.89 255.454C295.744 253.768 295.671 252.083 295.671 250.397C295.744 249.371 296.184 247.539 296.55 247.539C300.874 247.173 300.507 243.215 302.193 240.797C303.146 239.478 305.857 237.939 306.883 238.452C308.789 239.478 310.181 241.237 310.767 243.362C311.427 246.806 310.035 250.324 312.746 253.768C313.626 254.868 310.694 258.972 309.302 262.196C313.186 265.054 310.841 267.912 308.129 270.771C306.59 272.383 304.538 273.775 306.224 276.633C306.59 277.293 305.931 279.418 305.124 279.785C300.288 282.423 295.377 284.768 289.515 287.699C288.635 280.811 287.902 275.094 287.243 269.378C287.17 268.865 287.536 267.839 287.902 267.766C292.3 266.52 290.687 262.856 291.347 259.998C291.713 258.239 293.472 256.846 294.571 255.234L295.89 255.454Z" fill="white"/>
<path d="M275.304 64.7772C271.347 63.4581 267.463 62.5054 267.243 57.2289C267.17 55.7632 263.872 54.5906 262.699 52.905C261.746 51.4393 261.453 49.6805 261.82 47.9216C262.113 47.1155 264.751 46.4559 266.144 46.7491C269.441 47.4819 272.006 49.7538 276.037 49.0209C277.796 48.7278 280.361 52.392 282.853 54.5906C286.15 52.1722 288.276 54.444 290.254 57.4487C291.647 59.4274 292.453 62.4321 296.19 60.9664C296.703 60.7466 298.829 62.9451 299.195 64.3375C300.368 68.2949 301.101 72.3989 301.907 76.5029C302.42 79.2144 301.32 80.2404 298.609 79.8007C295.531 79.2877 292.453 78.9946 289.448 78.5549C286.443 78.1151 282.12 79.0679 282.633 73.4249C282.706 72.8386 280.214 71.8126 278.822 71.2996C275.817 70.2003 273.545 68.7346 275.304 64.7772Z" fill="white"/>
<path d="M287.613 44.4441C282.043 42.4654 276.473 40.4134 270.831 38.3615C270.537 38.2882 270.098 38.0683 270.098 37.8485C269.731 32.2788 263.868 32.1322 261.45 28.981C255.807 21.5791 248.332 16.669 240.93 11.3925C240.124 10.8062 239.758 9.70694 238.512 7.87481C240.857 7.50839 242.616 6.84882 244.155 7.14196C249.138 8.09467 254.121 9.19395 259.032 10.5864C260.424 10.9528 261.67 12.1254 262.842 13.0781C264.968 14.8369 266.36 17.3286 270.171 16.3026C271.637 15.9362 273.982 19.3806 276.034 20.9196C277.719 22.1654 279.551 23.1914 281.384 24.2907C282.41 24.9503 284.022 25.39 284.315 26.2694C286.074 31.9124 287.54 37.5553 289.152 43.2716L287.613 44.4441Z" fill="white"/>
<path d="M260.723 42.8537C255.3 42.8537 251.196 43.0003 247.092 42.7804C246.139 42.7072 245.113 41.6812 244.234 40.9483C243.208 40.0689 242.182 39.1162 241.229 38.2368C239.91 36.9909 238.591 35.8184 237.272 34.5725C236.979 34.2794 236.905 33.4732 236.686 33.4732C231.409 33.6198 230.823 27.9768 227.305 25.7783C225.986 24.9721 225.693 22.627 224.96 20.9415C226.792 20.6483 228.771 19.549 230.31 20.1353C234.121 21.4545 239.104 19.1826 241.742 23.7996C247.459 20.9415 249.144 29.7357 254.421 28.1234C254.714 28.0501 255.52 28.783 255.74 29.296C257.352 33.4732 258.891 37.7238 260.723 42.8537Z" fill="white"/>
<path d="M231.696 10.8228C225.174 12.655 219.238 15.9528 212.349 12.5817C208.978 10.8961 204.874 10.7496 201.283 9.43042C198.278 8.25786 195.347 6.79216 192.635 5.03331C192.049 4.66688 191.683 2.83475 192.049 2.24847C192.709 1.29577 193.808 0.636198 194.98 0.489628C201.576 -0.096654 208.245 -0.169939 214.914 0.343057C222.902 0.929339 226.2 6.64559 231.696 10.8228Z" fill="white"/>
<path d="M9.57031 180.397C10.2299 176.146 10.7429 171.896 11.549 167.645C11.9154 165.667 12.7949 163.688 13.5277 161.563C25.5465 172.262 39.031 202.749 31.1894 221.07C19.5371 217.259 11.4758 206.706 10.5231 194.174C10.3765 192.342 9.93674 190.583 9.57031 188.825V180.397Z" fill="white"/>
<path d="M39.6853 192.429C24.5885 176.966 31.9171 150.51 53.4629 141.643C63.5763 155.567 57.4936 178.065 39.6853 192.429Z" fill="white"/>
<path d="M70.251 93.0366C75.3809 116.122 58.0123 132.977 42.6957 137.887C38.3719 129.679 38.8849 121.398 42.6224 113.19C47.9722 101.538 57.2795 95.0886 70.251 93.0366Z" fill="white"/>
<path d="M50.6101 192.636C63.435 202.383 63.1419 225.761 52.8086 245.108C34.4141 235.947 33.0949 205.314 50.6101 192.636Z" fill="white"/>
<path d="M26.5706 101.252C37.1237 123.751 36.3909 151.672 25.2515 161.786C13.5259 153.724 11.767 115.103 26.5706 101.252Z" fill="white"/>
<path d="M20.7838 226.509C40.5708 237.135 51.7102 252.965 55.0813 275.243C44.8213 275.024 38.812 268.208 33.0957 261.759C24.3748 251.939 17.7791 241.239 20.7838 226.509Z" fill="white"/>
<path d="M57.4202 48.8365C61.7441 66.938 52.6567 96.6185 38.2928 104.02C28.5458 86.4318 45.2549 54.5528 57.4202 48.8365Z" fill="white"/>
<path d="M97.8037 53.4795C96.5578 66.1578 84.2459 84.8456 62.0405 87.0441C57.5701 69.2358 79.7755 50.1816 97.8037 53.4795Z" fill="white"/>
<path d="M61.5297 242.343C78.3853 254.069 80.4373 272.17 83.5153 290.272C65.3405 287.194 49.6575 260.298 61.5297 242.343Z" fill="white"/>
<path d="M100.227 316.664C80.6595 318.569 51.4187 299.149 48.5605 282.367C71.3522 285.591 85.7894 300.321 100.227 316.664Z" fill="white"/>
<path d="M90.7699 288.702C112.462 291.56 125.141 304.751 132.909 323.805C117.666 327.103 90.3302 304.458 90.7699 288.702Z" fill="white"/>
<path d="M142.953 20.261C131.74 34.9914 111.22 48.5491 97.4424 44.7383C101.18 28.6156 123.239 16.5968 142.953 20.261Z" fill="white"/>
<path d="M108.941 16.192C97.5818 31.875 85.9295 45.6526 66.2891 51.8086C66.5822 49.3902 66.4357 47.558 66.9486 46.019C71.4923 31.7284 90.1068 17.0714 105.203 15.9721C106.449 15.9721 107.695 16.0454 108.941 16.192Z" fill="white"/>
<path d="M187.651 2.9233C176.438 12.5237 163.76 15.6749 149.836 15.8215C151.009 5.78142 172.774 -4.11208 187.651 2.9233Z" fill="white"/>
<path d="M153.94 2.01148C143.021 12.4913 130.855 17.7678 115.905 15.5692C117.591 7.28802 138.844 -2.23906 153.94 2.01148Z" fill="white"/>
<path d="M67.6094 345.727C70.1744 333.269 79.848 324.621 92.9661 324.548C99.122 324.548 105.205 325.354 111.141 327.04C125.505 331.07 139.722 335.761 153.939 340.231C155.112 340.597 156.211 341.037 157.75 341.623C152.547 350.491 152.034 359.505 156.944 368.885C142.067 370.791 128.436 368.226 115.245 362.876C103.959 358.259 93.0393 352.909 81.7534 348.439C77.5762 346.68 72.5928 346.607 67.6094 345.727ZM128.876 348.512C126.531 345.874 129.242 340.158 124.625 339.791L117.223 354.302L120.814 356.061C121.547 354.888 122.06 353.935 122.647 353.129C123.233 352.323 123.819 351.663 124.552 350.711C126.677 358.332 126.677 358.332 128.656 358.479L136.644 342.942C131.514 341.55 131.881 347.193 128.876 348.512ZM112.46 341.257L109.089 350.931L112.973 352.47L117.443 336.933L110.555 337.666L108.429 334.808C107.55 335.614 106.744 336.493 106.084 337.519C104.325 340.451 102.713 343.455 100.881 346.827C106.231 348.879 107.843 341.843 112.46 341.257ZM142.58 361.777L146.904 344.042C144.412 345.141 141.554 345.507 141.188 346.68C139.649 351.297 138.843 356.134 137.743 361.19L142.58 361.777ZM91.9401 347.12L101.321 333.489L100.734 332.683L95.3845 336.2V330.777C90.621 334.954 91.9401 340.011 90.6942 344.115C90.4011 344.921 91.5737 346.24 91.9401 347.12Z" fill="white"/>
<path d="M302.639 345.869C287.762 344.257 276.036 350.193 264.53 357.155C252.292 364.557 239.247 370.127 224.736 370.933C221.145 371.153 217.554 370.273 213.084 369.834C217.921 360.746 219.387 352.392 213.89 343.231C220.632 340.52 227.008 337.808 233.604 335.39C247.455 330.333 261.526 326.522 276.402 326.522C279.774 326.595 283.218 326.962 286.516 327.621C292.379 328.574 296.849 331.212 298.681 337.368C299.487 340.08 301.1 342.645 302.639 345.869ZM257.641 338.907C257.275 335.756 255.443 334.877 252.511 335.609C250.02 336.269 247.455 336.929 244.89 337.442C241.519 338.174 241.152 340.007 242.838 342.865L247.235 342.425C248.407 353.198 250.972 355.983 256.102 352.392C251.339 343.744 251.485 341.912 257.641 338.907ZM233.97 356.862C240.713 355.47 241.592 349.827 236.755 340.3C233.237 341.619 229.573 342.865 226.055 344.257C223.197 345.283 222.538 346.969 224.736 349.607L233.97 346.456V356.862ZM278.088 340.886C274.79 331.286 269.88 329.38 260.426 334.217L265.703 346.602C272.445 343.451 265.483 339.86 266.582 336.635C269.514 335.023 271.712 335.463 272.885 338.981C273.691 341.326 274.79 343.524 278.088 340.886ZM229.573 349.68C227.814 351.659 225.982 352.758 225.909 354.004C225.542 357.888 225.762 361.919 225.762 365.876C231.698 366.682 232.065 366.316 231.112 360.746C230.599 357.522 230.233 354.37 229.573 349.68Z" fill="white"/>
<path d="M185.377 375.942C170.28 375.795 160.387 366.121 161.999 353.736C163.465 342.817 176.656 334.535 188.968 336.881C200.034 339.006 207.069 346.408 207.656 355.642C208.388 366.268 198.495 374.622 190.067 375.648C188.308 375.795 186.403 375.868 185.377 375.942Z" fill="white"/>
<path d="M172.559 302.334C179.961 307.61 187.876 307.61 196.377 305.338C208.396 302.114 214.698 304.605 220.415 314.133C213.233 313.033 207.663 316.404 201.727 319.336C196.231 321.974 190.514 324.099 184.651 325.858C182.599 326.298 180.401 325.858 178.642 324.686C172.559 320.362 169.775 309.516 172.559 302.334Z" fill="white"/>
<path d="M165.742 302.288C163.91 313.061 166.768 322.075 173.876 328.597C170.139 331.016 166.548 333.361 162.884 335.559C162.077 336.072 161.051 336.219 160.099 336.072C152.257 333.58 147.567 325.226 148.886 316.578C150.205 308.224 157.387 302.214 165.742 302.288Z" fill="white"/>
<path d="M211.108 338.115L202.24 331.812C204.952 323.824 211.694 318.694 220.342 318.108C224.079 317.815 224.959 319.573 224.299 322.871C223.2 328.221 218.583 333.644 211.108 338.115Z" fill="white"/>
<path d="M287.54 370.05L282.85 356.052C288.273 353.78 294.502 352.168 301.171 353.267C306.301 354.147 307.62 358.031 304.176 362.062C299.705 367.338 293.403 368.804 287.54 370.05Z" fill="white"/>
<path d="M83.5826 371.952C78.3793 368.728 73.1028 365.87 68.4858 362.279C67.0201 361.106 65.9941 357.515 66.727 355.829C67.4598 354.144 70.831 352.752 72.7364 353.045C78.0862 353.924 83.2895 355.756 88.1263 357.075L83.5826 371.952Z" fill="white"/>
<path d="M186.994 108.642C192.93 114.578 196.667 121.101 197.84 128.796C198.206 131.287 197.253 134.439 195.934 136.784C191.537 144.772 190.731 153.419 189.852 162.214C189.705 163.899 189.852 165.585 189.852 167.197C184.429 168.956 183.769 168.589 183.549 163.679C183.036 153.493 182.523 143.306 176.294 134.512C175.561 133.486 175.854 131.434 176.074 129.968C177.173 121.687 180.911 114.798 186.994 108.642Z" fill="white"/>
<path d="M224.081 152.768C219.904 152.109 215.947 150.79 212.062 151.083C204.001 151.669 200.777 155.333 198.285 164.86C197.992 165.96 197.039 166.986 196.453 168.012C195.866 166.766 194.694 165.447 194.84 164.347C195.573 159.364 196.746 154.454 198.212 149.617C199.238 146.905 200.996 144.487 203.195 142.582C207.372 138.991 212.282 137.305 217.705 139.65C222.469 141.702 224.521 146.246 224.081 152.768Z" fill="white"/>
<path d="M177.692 168.368C173.514 152.539 166.919 147.922 150.063 153.125C149.33 146.896 151.602 141.986 156.219 139.64C160.47 137.515 166.992 138.761 171.242 142.718C176.079 147.116 177.692 153.052 178.718 159.208C179.084 161.186 179.231 163.165 179.157 165.217C179.011 166.243 178.131 167.269 177.692 168.368Z" fill="white"/>
<path d="M187.143 207.525C181.427 203.714 182.453 198.071 182.599 192.868C182.819 190.449 183.332 188.031 184.211 185.759C184.944 183.707 188.462 183.341 189.708 185.026C193.372 189.863 191.98 203.201 187.143 207.525Z" fill="white"/>
<path d="M195.714 183.869C196.52 184.382 197.766 184.675 198.132 185.408C201.796 192.296 202.969 192.883 210.737 190.611C210.371 192.296 210.444 193.982 209.638 195.008C207.879 197.133 205.754 200.284 203.702 200.358C201.65 200.431 198.718 197.646 197.472 195.374C195.86 192.223 195.494 188.412 194.541 184.895L195.714 183.869Z" fill="white"/>
<path d="M179.887 183.41C178.935 187.954 178.568 190.885 177.689 193.597C176.516 197.261 174.684 200.632 170.214 200.632C166.842 200.632 164.204 196.235 163.984 191.472C166.476 191.472 169.407 192.278 171.386 191.252C173.365 190.226 174.318 187.294 175.93 185.389C176.663 184.729 177.835 184.436 179.887 183.41Z" fill="white"/>
<path d="M175.634 173.056C182.522 173.056 189.411 172.983 196.373 173.129C197.326 173.129 198.205 174.522 199.158 175.328C198.352 176.207 197.546 177.746 196.74 177.82C190.291 178.113 183.841 178.333 177.392 178.113C176.366 178.039 175.414 175.621 174.461 174.302L175.634 173.056Z" fill="white"/>
</svg>
