<svg width="969" height="385" viewBox="0 0 969 385" fill="none" xmlns="http://www.w3.org/2000/svg">
<path d="M95.4613 1.872C76.8493 1.872 56.0593 2.664 38.4373 4.04999L40.6153 31.176C45.5653 30.78 50.7133 30.582 55.6633 30.384V72.162C55.6633 78.894 53.6833 81.27 48.3373 81.27C44.5753 81.27 41.4073 81.27 36.8533 80.874V108.594C41.6053 108.99 49.1293 109.386 54.2773 109.386C81.0073 109.386 88.1353 103.248 88.1353 77.904V29.196H95.6593C104.173 29.196 110.311 29.394 116.053 30.186C116.647 35.928 116.647 41.472 116.647 48.006V108H149.713V48.996C149.713 7.61399 137.833 1.872 95.4613 1.872ZM231.127 3.05999L229.939 51.174C229.543 66.816 226.375 72.558 217.069 76.122C211.525 50.778 204.793 25.632 197.467 2.06999L164.401 3.654C173.113 30.582 180.835 56.52 187.765 83.052C180.241 84.438 173.113 85.428 166.975 86.22V114.732C181.627 113.544 195.883 111.762 214.099 107.208C239.047 101.07 258.451 89.784 261.223 54.342L265.183 3.05999H231.127ZM290.64 108H323.706V25.236C323.706 7.61399 317.964 2.46599 298.164 2.46599C292.224 2.46599 282.324 2.664 275.988 3.05999L278.364 30.186H290.64V108ZM342.96 108H396.816V43.254C396.816 5.23799 392.46 2.46599 362.364 2.46599C355.83 2.46599 350.484 2.664 344.346 3.25799L345.93 30.186H363.75V79.686H342.96V108ZM474.832 1.872C456.22 1.872 435.43 2.664 417.808 4.04999L419.986 31.176C424.936 30.78 430.084 30.582 435.034 30.384V72.162C435.034 78.894 433.054 81.27 427.708 81.27C423.946 81.27 420.778 81.27 416.224 80.874V108.594C420.976 108.99 428.5 109.386 433.648 109.386C460.378 109.386 467.506 103.248 467.506 77.904V29.196H475.03C483.544 29.196 489.682 29.394 495.424 30.186C496.018 35.928 496.018 41.472 496.018 48.006V108H529.084V48.996C529.084 7.61399 517.204 1.872 474.832 1.872ZM37.1627 136.872C26.2727 136.872 14.5907 137.466 4.4927 138.258L6.8687 165.978C18.3527 164.988 30.8267 164.79 37.1627 164.79C41.7167 164.79 45.8747 164.988 49.4387 165.186C50.0327 170.532 50.0327 175.284 50.0327 180.828V243H83.0987V183.204C83.0987 143.01 71.8127 136.872 37.1627 136.872ZM172.499 136.872C164.579 136.872 151.907 138.258 134.681 147.762L131.315 135.684L102.011 138.06L110.921 168.354L103.793 243H136.463L141.611 168.354C148.541 166.176 156.263 165.582 162.203 165.582C166.361 165.582 169.727 165.78 172.499 166.176C173.093 173.304 173.291 179.838 173.291 186.372V213.696L153.491 214.686L152.501 243H206.357V179.64C206.357 147.168 196.655 136.872 172.499 136.872ZM235.726 243H268.792V160.236C268.792 142.614 263.05 137.466 243.25 137.466C237.31 137.466 227.41 137.664 221.074 138.06L223.45 165.186H235.726V243ZM384.043 138.06C384.043 208.152 377.311 216.468 342.859 216.468C338.305 216.468 333.553 216.27 327.811 215.478L326.425 202.014C346.621 200.034 361.471 193.302 365.827 166.77C367.411 157.266 368.995 147.564 369.985 138.06H339.889L336.523 161.82C334.345 175.482 331.177 181.62 324.841 185.778L319.891 138.06H287.221L295.735 210.924C297.121 222.21 297.715 227.556 299.695 240.822C311.971 242.802 330.979 243.792 342.265 243.792C401.665 243.792 417.109 219.636 417.109 138.06H384.043ZM473.324 136.872C459.662 136.872 445.01 137.664 432.536 138.654L434.714 166.77C447.782 165.78 461.246 165.186 472.73 165.186C481.442 165.186 489.164 165.384 495.302 165.978C496.094 173.304 496.094 180.432 496.094 190.332V243H529.16V179.046C529.16 142.218 515.498 136.872 473.324 136.872ZM434.516 223.596V243H467.582V185.58C457.088 185.58 445.802 186.174 436.694 187.164C435.11 198.846 434.516 212.508 434.516 223.596ZM92.0768 271.872C81.1868 271.872 69.5048 272.466 59.4068 273.258L61.7828 300.978C73.2668 299.988 85.7408 299.79 92.0768 299.79C96.6308 299.79 100.789 299.988 104.353 300.186C104.947 305.532 104.947 310.284 104.947 315.828V378H138.013V318.204C138.013 278.01 126.727 271.872 92.0768 271.872ZM166.268 340.776H199.334V294.84C199.334 276.624 192.998 272.466 172.406 272.466C167.06 272.466 157.556 272.862 151.022 273.258L153.398 300.186H166.268V340.776ZM276.373 273.06L275.185 321.174C274.789 336.816 271.621 342.558 262.315 346.122C256.771 320.778 250.039 295.632 242.713 272.07L209.647 273.654C218.359 300.582 226.081 326.52 233.011 353.052C225.487 354.438 218.359 355.428 212.221 356.22V384.732C226.873 383.544 241.129 381.762 259.345 377.208C284.293 371.07 303.697 359.784 306.469 324.342L310.429 273.06H276.373ZM324.425 378H408.971L413.129 354.834L394.319 334.638V334.242C405.011 320.778 410.159 304.542 416.297 273.06H385.805L378.281 315.63L377.687 315.828L351.947 271.674L317.693 274.248L317.297 276.228L342.641 313.452C353.927 330.084 360.857 338.004 368.579 348.3L368.183 349.686H325.019L324.425 378ZM473.324 271.872C459.662 271.872 445.01 272.664 432.536 273.654L434.714 301.77C447.782 300.78 461.246 300.186 472.73 300.186C481.442 300.186 489.164 300.384 495.302 300.978C496.094 308.304 496.094 315.432 496.094 325.332V378H529.16V314.046C529.16 277.218 515.498 271.872 473.324 271.872ZM434.516 358.596V378H467.582V320.58C457.088 320.58 445.802 321.174 436.694 322.164C435.11 333.846 434.516 347.508 434.516 358.596Z" fill="white"/>
<path d="M672.709 233.428C673.369 231.522 674.102 229.69 674.908 227.931C685.241 208.804 695.647 189.603 706.127 170.549C707.666 167.764 707.739 165.712 706.2 162.927C695.574 143.8 685.168 124.526 674.688 105.325C673.955 104.006 673.369 102.614 672.416 100.708H678.499C698.945 100.708 719.392 100.635 739.838 100.782C742.916 100.782 744.455 99.7556 745.921 97.1174C756.254 77.6235 779.939 36.1441 780.965 34.312C785.215 42.1535 806.455 82.9733 813.27 96.0914C815.102 99.6824 817.301 100.708 821.185 100.635C841.338 100.342 861.419 100.342 881.572 100.195H887.361C884.357 105.912 881.719 110.895 879.007 115.878C870.579 131.561 862.298 147.244 853.724 162.781C852.185 165.566 852.185 167.618 853.724 170.403C864.277 189.457 874.61 208.657 885.016 227.785C885.749 229.104 886.409 230.496 887.361 232.402C885.676 232.548 884.43 232.768 883.111 232.768C862.371 232.915 841.632 233.135 820.892 233.061C817.301 233.061 815.395 234.161 813.783 237.312C803.083 257.539 781.331 298.652 780.965 299.018C779.939 297.406 756.987 256.806 746.947 237.825C745.188 234.454 743.136 233.428 739.472 233.428C719.172 233.574 698.872 233.501 678.645 233.501L672.709 233.428ZM849.4 209.537C848.3 207.412 847.641 206.019 846.981 204.7C840.752 193.121 834.523 181.542 828.147 170.109C826.755 167.691 826.681 165.859 828.074 163.367C833.79 153.107 839.286 142.774 844.783 132.368C846.175 129.729 847.568 127.018 849.18 123.866C834.523 123.866 820.599 123.793 806.674 123.94C804.036 123.94 802.497 123.28 801.325 120.788C798.393 114.852 785.069 89.2026 780.965 81.6542C780.085 83.1932 765.342 108.477 759.112 120.349C757.72 123.06 756.108 124.086 753.03 124.013C740.645 123.866 728.259 124.086 715.874 124.16C714.408 124.16 713.016 124.306 710.891 124.379C718.219 137.717 724.961 150.322 732.07 162.781C733.682 165.566 733.682 167.764 732.07 170.476C729.578 174.726 727.307 179.124 724.961 183.521C720.564 191.729 716.241 199.863 711.477 208.731H716.754C728.846 208.731 740.938 208.804 752.956 208.511C756.034 208.438 757.647 209.537 759.039 212.175C766.074 225.22 773.563 238.191 780.965 251.529C781.844 249.917 795.389 224.707 801.251 213.348C802.79 210.416 804.549 209.464 807.7 209.537C821.258 209.61 834.889 209.537 849.4 209.537Z" fill="white"/>
<path d="M780.955 34.312C785.206 42.1535 806.445 82.9733 813.261 96.0914C815.093 99.6824 817.291 100.708 821.175 100.635C841.329 100.342 861.409 100.342 881.562 100.195H887.352C884.347 105.912 881.709 110.895 878.998 115.878C870.57 131.561 862.288 147.244 853.714 162.781C852.175 165.566 852.175 167.618 853.714 170.403C864.267 189.457 874.6 208.657 885.007 227.785C885.74 229.104 886.399 230.496 887.352 232.402C885.666 232.548 884.421 232.768 883.102 232.768C862.362 232.915 841.622 233.135 820.882 233.061C817.291 233.061 815.386 234.161 813.774 237.312C803.074 257.539 781.322 298.652 780.955 299.018V251.529C781.835 249.917 795.379 224.707 801.242 213.348C802.781 210.416 804.54 209.464 807.691 209.537C821.249 209.61 834.88 209.537 849.39 209.537C848.291 207.412 847.631 206.019 846.972 204.7C840.743 193.121 834.513 181.542 828.138 170.109C826.745 167.691 826.672 165.859 828.064 163.367C833.781 153.107 839.277 142.774 844.773 132.368C846.166 129.729 847.558 127.018 849.17 123.866C834.513 123.866 820.589 123.793 806.665 123.94C804.027 123.94 802.488 123.28 801.315 120.788C798.384 114.852 785.059 89.2026 780.955 81.6542V34.312Z" fill="white"/>
<path d="M952.948 201.979C956.246 205.203 955.073 207.841 951.482 209.967C947.378 212.458 943.274 214.95 939.317 217.588C936.532 219.42 935.213 218.468 934.333 215.536C933.307 212.019 932.062 208.501 930.669 205.057C928.91 201.026 929.204 198.094 933.894 197.435C936.019 193.111 929.79 185.416 939.83 185.196C939.537 182.924 938.804 180.726 939.17 178.674C939.537 176.988 941.076 175.449 942.248 173.984C943.054 172.884 944.3 172.005 944.887 170.832C945.766 168.927 945.839 166.362 947.085 164.823C948.331 163.284 950.969 161.745 952.582 162.038C954.194 162.331 955.953 164.896 956.392 166.728C957.272 170.319 955.073 174.497 959.104 177.575C959.763 178.088 958.957 181.092 958.298 182.705C957.492 184.683 956.099 186.369 955 188.201C960.057 190.619 960.057 190.619 952.948 201.979Z" fill="white"/>
<path d="M932.424 138.355C928.393 128.462 928.393 128.462 933.01 125.457C932.131 123.771 930.958 122.086 930.372 120.254C929.932 118.568 929.419 115.71 930.152 115.197C933.597 112.852 932.351 109.994 931.911 106.989C931.471 103.984 931.471 100.76 934.989 99.6605C938.8 98.4147 940.559 101.126 941.878 104.204C943.197 107.282 943.051 111.313 947.961 111.679C948.474 111.679 949.206 114.024 949.133 115.27C948.987 117.762 948.694 120.18 948.254 122.599C954.043 124.724 954.043 124.724 951.405 136.303C955.875 139.967 956.095 140.774 952.504 145.684C949.353 150.007 945.909 154.185 942.171 159.095C937.701 153.892 933.45 149.421 929.932 144.438C929.126 143.338 930.739 140.627 931.178 138.648L932.424 138.355Z" fill="white"/>
<path d="M902.083 70.2268C899.811 68.3946 897.685 67.2221 896.293 65.4632C895.194 63.9975 894.974 61.8723 894.388 60.0401C894.094 59.0141 894.094 57.695 893.581 56.8156C892.629 55.2033 890.943 53.9574 890.357 52.3452C889.624 50.2199 889.771 47.8748 889.551 45.6029C891.823 45.8961 894.314 45.8228 896.366 46.7022C898.125 47.4351 899.224 49.4871 900.837 50.5863C902.596 51.7589 904.794 52.2719 906.553 53.3712C908.165 54.3972 909.851 55.5697 910.877 57.0354C912.196 59.0874 912.855 61.5058 913.955 64.1441C920.331 62.3852 921.063 67.2221 922.163 71.5459C922.749 73.891 922.749 76.2362 926.193 76.7491C927.219 76.8957 928.758 79.9004 928.539 81.4394C927.879 86.1297 926.926 90.8199 925.754 95.4369C925.241 97.6354 923.995 98.5149 921.723 97.0492C917.546 94.4109 913.222 92.139 909.045 89.4275C907.945 88.6946 906.406 86.5694 906.7 85.9098C908.752 81.586 905.161 80.1936 903.035 78.1416C900.69 75.7964 898.345 73.6712 902.083 70.2268Z" fill="white"/>
<path d="M925.541 245.224C925.981 243.172 926.201 240.973 927.08 238.994C927.667 237.602 929.279 235.55 930.232 235.697C933.676 236.136 934.702 233.791 936.241 231.739C937.12 230.493 937.926 228.734 939.172 228.295C941.151 227.562 943.863 226.902 945.402 227.782C946.574 228.441 946.941 231.446 946.941 233.351C946.941 234.89 945.768 236.503 945.108 238.042C944.815 238.775 944.082 239.727 944.302 240.167C948.626 247.129 941.884 248.888 938.366 252.625C942.177 256.51 939.539 258.855 936.168 261.126C933.676 262.812 930.232 263.911 931.404 268.235C931.551 268.895 930.085 270.507 929.132 270.8C923.196 272.706 917.187 274.391 910.078 276.516C910.518 269.408 910.811 263.472 911.397 257.536C911.471 256.729 912.863 255.41 913.523 255.484C917.333 255.85 917.407 253.138 918.139 250.647C919.532 245.004 919.898 244.784 925.541 245.224Z" fill="white"/>
<path d="M910.075 170.743C904.505 162.462 904.505 162.462 908.463 159.531C907.29 158.138 905.824 156.893 905.018 155.28C904.432 154.108 904.139 151.836 904.798 151.323C907.29 149.271 906.191 147.219 905.971 144.8C905.824 142.748 906.85 139.524 908.389 138.718C909.928 137.912 913.226 138.791 914.765 140.183C917.477 142.675 918.063 147.439 923.12 147.512C923.559 147.512 924.292 149.857 924.439 151.103C924.512 152.935 924.439 154.694 924.219 156.526C930.302 157.479 930.302 157.479 929.569 167.885C934.552 170.963 934.772 171.769 931.621 176.899C929.935 179.684 927.956 182.249 926.271 185.034C924.585 187.819 923.12 188.332 920.481 185.913C917.183 182.835 913.739 179.977 910.148 177.339C906.924 175.141 907.143 173.162 910.075 170.743Z" fill="white"/>
<path d="M921.801 212.012C926.638 214.43 926.638 214.43 922.461 223.81C926.345 228.208 926.345 228.94 921.728 232.971C919.09 235.316 916.305 237.588 913.667 239.933C911.834 241.545 910.515 241.179 909.269 239.054C907.144 235.316 904.946 231.579 902.454 228.061C900.255 224.983 900.255 222.711 903.553 221.099C904.286 217.215 896.811 212.378 905.385 209.813C904.579 208.274 903.92 206.735 903.333 205.123C903.04 204.023 902.82 201.898 903.26 201.752C907.291 200.066 906.191 196.402 907.144 193.47C907.657 192.005 909.929 189.953 911.248 190.099C913.154 190.246 915.719 191.638 916.671 193.324C918.503 196.622 918.21 200.726 922.461 202.997C923.487 203.51 922.094 208.494 921.801 212.012Z" fill="white"/>
<path d="M901.865 120.026C894.39 114.163 894.39 114.163 897.102 109.766C894.024 107.42 889.553 105.588 892.485 100.165C892.851 99.4324 890.726 97.6003 890.579 96.2079C890.359 94.0093 889.993 90.7115 891.239 89.6855C892.485 88.6595 895.929 89.0259 897.761 89.9786C900.546 91.4443 902.012 95.2552 906.262 94.2292C906.848 94.0826 908.168 95.988 908.754 97.0873C909.487 98.9194 910.073 100.825 910.513 102.73C915.936 100.532 917.108 104.049 917.621 108.153C917.915 110.425 917.915 112.697 921.359 112.917C922.238 112.99 923.851 115.702 923.704 116.874C922.971 121.271 921.579 125.522 920.553 129.919C919.893 132.704 918.281 132.85 916.082 131.898C912.272 130.212 908.607 128.233 904.65 126.914C900.766 125.522 899.52 123.617 901.865 120.026Z" fill="white"/>
<path d="M830.272 326.617C833.35 320.974 836.355 315.331 839.506 309.688C839.873 309.029 840.679 308.223 841.192 308.296C845.956 308.882 846.908 304.705 849.253 302.14C850.719 300.528 852.991 299.722 854.97 298.549L855.922 299.722C856.875 297.816 857.901 295.911 859.074 294.152C859.88 292.979 861.419 291.074 862.225 291.22C866.182 291.953 867.648 289.095 869.773 287.043C871.752 285.065 874.024 283.452 876.662 285.504C879.3 287.556 878.494 290.194 877.102 292.613C875.196 295.984 872.924 298.842 872.411 303.166C872.118 305.511 867.281 307.343 863.984 309.762C865.229 313.572 862.518 315.258 858.78 316.577C855.922 317.603 852.405 318.043 851.745 322.147C851.525 322.733 851.012 323.173 850.426 323.319C843.904 324.932 837.381 326.471 830.859 328.01L830.272 326.617Z" fill="white"/>
<path d="M870.502 316.244C873.067 311.7 875.632 307.083 878.27 302.613C878.783 301.806 880.176 300.634 880.762 300.854C884.866 302.173 885.965 298.802 887.724 296.53C889.629 293.965 891.608 291.986 895.126 294.771C896.298 292.939 897.544 291.107 898.937 289.421C899.889 288.322 901.721 286.563 902.454 286.856C906.412 288.395 908.39 285.464 910.882 283.705C913.374 281.946 916.452 280.407 918.87 282.972C921.435 285.684 919.31 288.395 917.111 290.594C914.913 292.792 912.934 294.624 912.714 298.215C912.568 299.754 909.197 301.147 907.145 302.319C905.239 303.419 902.894 303.419 903.407 306.863C903.554 307.816 900.842 309.648 899.156 310.381C895.859 311.7 891.901 311.7 890.729 316.097C890.582 316.39 890.362 316.61 890.069 316.683C883.62 317.196 877.171 317.709 870.722 318.149L870.502 316.244Z" fill="white"/>
<path d="M888.89 257.454C888.744 255.768 888.671 254.083 888.671 252.397C888.744 251.371 889.184 249.539 889.55 249.539C893.874 249.173 893.507 245.215 895.193 242.797C896.146 241.478 898.857 239.939 899.883 240.452C901.789 241.478 903.181 243.237 903.767 245.362C904.427 248.806 903.035 252.324 905.746 255.768C906.626 256.868 903.694 260.972 902.302 264.196C906.186 267.054 903.841 269.912 901.129 272.771C899.59 274.383 897.538 275.775 899.224 278.633C899.59 279.293 898.931 281.418 898.124 281.785C893.288 284.423 888.377 286.768 882.515 289.699C881.635 282.811 880.902 277.094 880.243 271.378C880.17 270.865 880.536 269.839 880.902 269.766C885.3 268.52 883.687 264.856 884.347 261.998C884.713 260.239 886.472 258.846 887.571 257.234L888.89 257.454Z" fill="white"/>
<path d="M868.304 66.7772C864.347 65.4581 860.463 64.5054 860.243 59.2289C860.17 57.7632 856.872 56.5906 855.699 54.905C854.746 53.4393 854.453 51.6805 854.82 49.9216C855.113 49.1155 857.751 48.4559 859.144 48.7491C862.441 49.4819 865.006 51.7538 869.037 51.0209C870.796 50.7278 873.361 54.392 875.853 56.5906C879.15 54.1722 881.276 56.444 883.254 59.4487C884.647 61.4274 885.453 64.4321 889.19 62.9664C889.703 62.7466 891.829 64.9451 892.195 66.3375C893.368 70.2949 894.101 74.3989 894.907 78.5029C895.42 81.2144 894.32 82.2404 891.609 81.8007C888.531 81.2877 885.453 80.9946 882.448 80.5549C879.443 80.1151 875.12 81.0679 875.633 75.4249C875.706 74.8386 873.214 73.8126 871.822 73.2996C868.817 72.2003 866.545 70.7346 868.304 66.7772Z" fill="white"/>
<path d="M880.613 46.4441C875.043 44.4654 869.473 42.4134 863.831 40.3615C863.537 40.2882 863.098 40.0683 863.098 39.8485C862.731 34.2788 856.868 34.1322 854.45 30.981C848.807 23.5791 841.332 18.669 833.93 13.3925C833.124 12.8062 832.758 11.7069 831.512 9.87481C833.857 9.50839 835.616 8.84882 837.155 9.14196C842.138 10.0947 847.121 11.1939 852.032 12.5864C853.424 12.9528 854.67 14.1254 855.842 15.0781C857.968 16.8369 859.36 19.3286 863.171 18.3026C864.637 17.9362 866.982 21.3806 869.034 22.9196C870.719 24.1654 872.551 25.1914 874.384 26.2907C875.41 26.9503 877.022 27.39 877.315 28.2694C879.074 33.9124 880.54 39.5553 882.152 45.2716L880.613 46.4441Z" fill="white"/>
<path d="M853.723 44.8537C848.3 44.8537 844.196 45.0003 840.092 44.7804C839.139 44.7072 838.113 43.6812 837.234 42.9483C836.208 42.0689 835.182 41.1162 834.229 40.2368C832.91 38.9909 831.591 37.8184 830.272 36.5725C829.979 36.2794 829.905 35.4732 829.686 35.4732C824.409 35.6198 823.823 29.9768 820.305 27.7783C818.986 26.9721 818.693 24.627 817.96 22.9415C819.792 22.6483 821.771 21.549 823.31 22.1353C827.121 23.4545 832.104 21.1826 834.742 25.7996C840.459 22.9415 842.144 31.7357 847.421 30.1234C847.714 30.0501 848.52 30.783 848.74 31.296C850.352 35.4732 851.891 39.7238 853.723 44.8537Z" fill="white"/>
<path d="M824.696 12.8228C818.174 14.655 812.238 17.9528 805.349 14.5817C801.978 12.8961 797.874 12.7496 794.283 11.4304C791.278 10.2579 788.347 8.79216 785.635 7.03331C785.049 6.66688 784.683 4.83475 785.049 4.24847C785.709 3.29577 786.808 2.6362 787.98 2.48963C794.576 1.90335 801.245 1.83006 807.914 2.34306C815.902 2.92934 819.2 8.64559 824.696 12.8228Z" fill="white"/>
<path d="M602.57 182.397C603.23 178.146 603.743 173.896 604.549 169.645C604.915 167.667 605.795 165.688 606.528 163.563C618.547 174.262 632.031 204.749 624.189 223.07C612.537 219.259 604.476 208.706 603.523 196.174C603.376 194.342 602.937 192.583 602.57 190.825V182.397Z" fill="white"/>
<path d="M632.685 194.429C617.589 178.966 624.917 152.51 646.463 143.643C656.576 157.567 650.494 180.065 632.685 194.429Z" fill="white"/>
<path d="M663.251 95.0366C668.381 118.122 651.012 134.977 635.696 139.887C631.372 131.679 631.885 123.398 635.622 115.19C640.972 103.538 650.279 97.0886 663.251 95.0366Z" fill="white"/>
<path d="M643.61 194.636C656.435 204.383 656.142 227.761 645.809 247.108C627.414 237.947 626.095 207.314 643.61 194.636Z" fill="white"/>
<path d="M619.571 103.252C630.124 125.751 629.391 153.672 618.252 163.786C606.526 155.724 604.767 117.103 619.571 103.252Z" fill="white"/>
<path d="M613.784 228.509C633.571 239.135 644.71 254.965 648.081 277.243C637.821 277.024 631.812 270.208 626.096 263.759C617.375 253.939 610.779 243.239 613.784 228.509Z" fill="white"/>
<path d="M650.42 50.8365C654.744 68.938 645.657 98.6185 631.293 106.02C621.546 88.4318 638.255 56.5528 650.42 50.8365Z" fill="white"/>
<path d="M690.804 55.4795C689.558 68.1578 677.246 86.8456 655.04 89.0441C650.57 71.2358 672.775 52.1816 690.804 55.4795Z" fill="white"/>
<path d="M654.53 244.343C671.385 256.069 673.437 274.17 676.515 292.272C658.341 289.194 642.657 262.298 654.53 244.343Z" fill="white"/>
<path d="M693.227 318.664C673.659 320.569 644.419 301.149 641.561 284.367C664.352 287.591 678.789 302.321 693.227 318.664Z" fill="white"/>
<path d="M683.77 290.702C705.462 293.56 718.141 306.751 725.909 325.805C710.666 329.103 683.33 306.458 683.77 290.702Z" fill="white"/>
<path d="M735.953 22.261C724.74 36.9914 704.22 50.5491 690.442 46.7383C694.18 30.6156 716.239 18.5968 735.953 22.261Z" fill="white"/>
<path d="M701.941 18.192C690.582 33.875 678.929 47.6526 659.289 53.8086C659.582 51.3902 659.436 49.558 659.949 48.019C664.492 33.7284 683.107 19.0714 698.203 17.9721C699.449 17.9721 700.695 18.0454 701.941 18.192Z" fill="white"/>
<path d="M780.651 4.9233C769.438 14.5237 756.76 17.6749 742.836 17.8215C744.009 7.78142 765.774 -2.11208 780.651 4.9233Z" fill="white"/>
<path d="M746.94 4.01148C736.021 14.4913 723.855 19.7678 708.905 17.5692C710.591 9.28802 731.844 -0.239058 746.94 4.01148Z" fill="white"/>
<path d="M660.609 347.727C663.174 335.269 672.848 326.621 685.966 326.548C692.122 326.548 698.205 327.354 704.141 329.04C718.505 333.07 732.722 337.761 746.939 342.231C748.112 342.597 749.211 343.037 750.75 343.623C745.547 352.491 745.034 361.505 749.944 370.885C735.067 372.791 721.436 370.226 708.245 364.876C696.959 360.259 686.039 354.909 674.753 350.439C670.576 348.68 665.593 348.607 660.609 347.727ZM721.876 350.512C719.531 347.874 722.242 342.158 717.625 341.791L710.223 356.302L713.814 358.061C714.547 356.888 715.06 355.935 715.647 355.129C716.233 354.323 716.819 353.663 717.552 352.711C719.677 360.332 719.677 360.332 721.656 360.479L729.644 344.942C724.514 343.55 724.881 349.193 721.876 350.512ZM705.46 343.257L702.089 352.931L705.973 354.47L710.443 338.933L703.555 339.666L701.429 336.808C700.55 337.614 699.744 338.493 699.084 339.519C697.325 342.451 695.713 345.455 693.881 348.827C699.231 350.879 700.843 343.843 705.46 343.257ZM735.58 363.777L739.904 346.042C737.412 347.141 734.554 347.507 734.188 348.68C732.649 353.297 731.843 358.134 730.743 363.19L735.58 363.777ZM684.94 349.12L694.321 335.489L693.734 334.683L688.384 338.2V332.777C683.621 336.954 684.94 342.011 683.694 346.115C683.401 346.921 684.574 348.24 684.94 349.12Z" fill="white"/>
<path d="M895.639 347.869C880.762 346.257 869.036 352.193 857.53 359.155C845.292 366.557 832.247 372.127 817.736 372.933C814.145 373.153 810.554 372.273 806.084 371.834C810.921 362.746 812.387 354.392 806.89 345.231C813.632 342.52 820.008 339.808 826.604 337.39C840.455 332.333 854.526 328.522 869.402 328.522C872.774 328.595 876.218 328.962 879.516 329.621C885.379 330.574 889.849 333.212 891.681 339.368C892.487 342.08 894.1 344.645 895.639 347.869ZM850.641 340.907C850.275 337.756 848.443 336.877 845.511 337.609C843.02 338.269 840.455 338.929 837.89 339.442C834.519 340.174 834.152 342.007 835.838 344.865L840.235 344.425C841.407 355.198 843.972 357.983 849.102 354.392C844.339 345.744 844.485 343.912 850.641 340.907ZM826.97 358.862C833.713 357.47 834.592 351.827 829.755 342.3C826.237 343.619 822.573 344.865 819.055 346.257C816.197 347.283 815.538 348.969 817.736 351.607L826.97 348.456V358.862ZM871.088 342.886C867.79 333.286 862.88 331.38 853.426 336.217L858.703 348.602C865.445 345.451 858.483 341.86 859.582 338.635C862.514 337.023 864.712 337.463 865.885 340.981C866.691 343.326 867.79 345.524 871.088 342.886ZM822.573 351.68C820.814 353.659 818.982 354.758 818.909 356.004C818.542 359.888 818.762 363.919 818.762 367.876C824.698 368.682 825.065 368.316 824.112 362.746C823.599 359.522 823.233 356.37 822.573 351.68Z" fill="white"/>
<path d="M778.377 377.942C763.28 377.795 753.387 368.121 754.999 355.736C756.465 344.817 769.656 336.535 781.968 338.881C793.034 341.006 800.069 348.408 800.656 357.642C801.388 368.268 791.495 376.622 783.067 377.648C781.308 377.795 779.403 377.868 778.377 377.942Z" fill="white"/>
<path d="M765.559 304.334C772.961 309.61 780.876 309.61 789.377 307.338C801.396 304.114 807.698 306.605 813.415 316.133C806.233 315.033 800.663 318.404 794.727 321.336C789.231 323.974 783.514 326.099 777.651 327.858C775.599 328.298 773.401 327.858 771.642 326.686C765.559 322.362 762.775 311.516 765.559 304.334Z" fill="white"/>
<path d="M758.742 304.288C756.91 315.061 759.768 324.075 766.876 330.597C763.139 333.016 759.548 335.361 755.884 337.559C755.077 338.072 754.051 338.219 753.099 338.072C745.257 335.58 740.567 327.226 741.886 318.578C743.205 310.224 750.387 304.214 758.742 304.288Z" fill="white"/>
<path d="M804.108 340.115L795.24 333.812C797.952 325.824 804.694 320.694 813.342 320.108C817.079 319.815 817.959 321.573 817.299 324.871C816.2 330.221 811.583 335.644 804.108 340.115Z" fill="white"/>
<path d="M880.54 372.05L875.85 358.052C881.273 355.78 887.502 354.168 894.171 355.267C899.301 356.147 900.62 360.031 897.176 364.062C892.705 369.338 886.403 370.804 880.54 372.05Z" fill="white"/>
<path d="M676.583 373.952C671.379 370.728 666.103 367.87 661.486 364.279C660.02 363.106 658.994 359.515 659.727 357.829C660.46 356.144 663.831 354.752 665.736 355.045C671.086 355.924 676.289 357.756 681.126 359.075L676.583 373.952Z" fill="white"/>
<path d="M779.994 110.642C785.93 116.578 789.667 123.101 790.84 130.796C791.206 133.287 790.253 136.439 788.934 138.784C784.537 146.772 783.731 155.419 782.852 164.214C782.705 165.899 782.852 167.585 782.852 169.197C777.429 170.956 776.769 170.589 776.549 165.679C776.036 155.493 775.523 145.306 769.294 136.512C768.561 135.486 768.854 133.434 769.074 131.968C770.173 123.687 773.911 116.798 779.994 110.642Z" fill="white"/>
<path d="M817.081 154.768C812.904 154.109 808.947 152.79 805.062 153.083C797.001 153.669 793.777 157.333 791.285 166.86C790.992 167.96 790.039 168.986 789.453 170.012C788.866 168.766 787.694 167.447 787.84 166.347C788.573 161.364 789.746 156.454 791.212 151.617C792.238 148.905 793.996 146.487 796.195 144.582C800.372 140.991 805.282 139.305 810.705 141.65C815.469 143.702 817.521 148.246 817.081 154.768Z" fill="white"/>
<path d="M770.692 170.368C766.514 154.539 759.919 149.922 743.063 155.125C742.33 148.896 744.602 143.986 749.219 141.64C753.47 139.515 759.992 140.761 764.242 144.718C769.079 149.116 770.692 155.052 771.718 161.208C772.084 163.186 772.231 165.165 772.157 167.217C772.011 168.243 771.131 169.269 770.692 170.368Z" fill="white"/>
<path d="M780.143 209.525C774.427 205.714 775.453 200.071 775.599 194.868C775.819 192.449 776.332 190.031 777.211 187.759C777.944 185.707 781.462 185.341 782.708 187.026C786.372 191.863 784.98 205.201 780.143 209.525Z" fill="white"/>
<path d="M788.714 185.869C789.52 186.382 790.766 186.675 791.132 187.408C794.796 194.296 795.969 194.883 803.737 192.611C803.371 194.296 803.444 195.982 802.638 197.008C800.879 199.133 798.754 202.284 796.702 202.358C794.65 202.431 791.718 199.646 790.472 197.374C788.86 194.223 788.494 190.412 787.541 186.895L788.714 185.869Z" fill="white"/>
<path d="M772.887 185.41C771.935 189.954 771.568 192.885 770.689 195.597C769.516 199.261 767.684 202.632 763.214 202.632C759.842 202.632 757.204 198.235 756.984 193.472C759.476 193.472 762.407 194.278 764.386 193.252C766.365 192.226 767.318 189.294 768.93 187.389C769.663 186.729 770.835 186.436 772.887 185.41Z" fill="white"/>
<path d="M768.634 175.056C775.522 175.056 782.411 174.983 789.373 175.129C790.326 175.129 791.205 176.522 792.158 177.328C791.352 178.207 790.546 179.746 789.74 179.82C783.291 180.113 776.841 180.333 770.392 180.113C769.366 180.039 768.414 177.621 767.461 176.302L768.634 175.056Z" fill="white"/>
</svg>
