<svg width="76" height="77" viewBox="0 0 76 77" fill="none" xmlns="http://www.w3.org/2000/svg">
<path fill-rule="evenodd" clip-rule="evenodd" d="M55.6607 46.0181C54.7369 45.5123 50.2004 43.0638 49.349 42.7179C48.4985 42.3728 47.8778 42.1927 47.2145 43.1106C46.5522 44.0263 44.6698 46.0774 44.0995 46.6847C43.5264 47.2924 42.9755 47.3488 42.0509 46.8417C41.1293 46.3375 38.1355 45.2299 34.6628 41.8922C31.961 39.2944 30.1889 36.1449 29.6746 35.1837C29.1604 34.2209 29.6708 33.7306 30.1594 33.2803C30.5983 32.8738 31.1416 32.216 31.6328 31.6849C32.1222 31.1538 32.2947 30.7679 32.6318 30.1522C32.9681 29.5361 32.833 28.9806 32.6146 28.5017C32.3966 28.0237 30.6892 23.3238 29.9759 21.4119C29.263 19.5001 28.4685 19.7846 27.9193 19.7627C27.3705 19.7438 26.7465 19.6407 26.1194 19.6175C25.4924 19.5939 24.4638 19.7913 23.5675 20.6999C22.6703 21.6085 20.1549 23.7922 19.982 28.4214C19.8086 33.0476 23.0107 37.6465 23.4572 38.2903C23.9041 38.9363 29.5719 48.9673 38.9906 53.0927C48.4122 57.2169 48.4615 55.9595 50.1898 55.8673C51.9195 55.776 55.8395 53.7989 56.7064 51.6337C57.5725 49.4677 57.642 47.5849 57.4219 47.1838C57.2009 46.7832 56.584 46.5227 55.6607 46.0181ZM38.3842 68.3189C32.155 68.3189 26.3534 66.4504 21.5092 63.2479L9.72204 67.0211L13.5533 55.6308C9.88154 50.5728 7.71214 44.36 7.71214 37.6465C7.71214 20.7323 21.4721 6.97145 38.3842 6.97145C55.2992 6.97145 69.0583 20.7323 69.0583 37.6465C69.0583 54.5593 55.2992 68.3189 38.3842 68.3189ZM38.3842 0.799927C18.036 0.799927 1.53977 17.2962 1.53977 37.6465C1.53977 44.6075 3.4714 51.1182 6.82628 56.6723L0.17627 76.4402L20.5758 69.9097C25.8547 72.8277 31.9248 74.4926 38.3842 74.4926C58.7357 74.4926 75.2311 57.9946 75.2311 37.6465C75.2311 17.2962 58.7357 0.799927 38.3842 0.799927Z" fill="white"/>
</svg>
